<?xml version="1.0" encoding="UTF-8"?>
<svg id="Layer_1" data-name="Layer 1" xmlns="http://www.w3.org/2000/svg" viewBox="0 0 7652.25 8192">
  <defs>
    <style>
      .cls-1 {
        fill: #9c1f1e;
      }

      .cls-2 {
        fill: #1e6938;
      }
    </style>
  </defs>
  <path class="cls-2" d="m5509.21,1.22c-51.19,80.47-83.53,192.29-104.83,362.95-7.85,62.77-13.11,117.88-23.7,249.6-11.25,139.78-17.24,202.48-25.69,270.23-15.11,121.34-35.14,217.32-62.03,298.39-11.32,33.88-22.56,62.03-37.47,93.85-24.49,52.05-40.4,91.85-72.82,182.18-28.75,80.14-36.67,101.5-50.05,135.12-32.61,82-64.1,143.64-98.91,193.69-34.74,49.99-71.62,100.64-149.29,205.01-69.62,93.58-93.98,126.73-125.93,171.53-74.61,104.7-133.59,196.62-182.51,284.61l-10.65,19.17v99.31l2.2.4c41.13,7.59,116.15-9.72,217.72-50.32,53.38-21.3,98.84-41.47,210.06-93.05,82.93-38.47,113.62-52.38,144.57-65.5,64.9-27.42,104.7-39.67,129.39-39.74,7.65-.07,9.25.13,13.98,1.73,6.19,2.06,5.46,2.13,29.02-2.06,70.95-12.58,155.22-36.41,270.43-76.48,39.94-13.91,55.71-19.57,136.12-48.79,92.05-33.48,106.1-38.47,155.09-54.78,108.16-36.01,182.51-57.57,410.68-119.08,176.78-47.66,271.23-75.88,361.76-108.16,212.79-75.81,373.74-166.67,519.84-293.46,25.16-21.83,37.21-33.15,110.29-103.9,81.4-78.81,118.81-117.01,158.68-161.74,86.26-97.04,138.25-180.58,155.29-249.8,5.26-21.23,7.12-37.61,6.52-56.64-.53-15.97-1.86-24.96-5.86-38.67l-2-7.06-8.45-2.13c-25.43-6.46-60.3-14.78-83-19.77-212.26-46.99-472.05-77.81-708.53-84.13-67.63-1.8-158.48-1.26-219.98,1.26-228.1,9.52-415.34,44.33-550.45,102.37-34.81,14.91-54.98,25.63-83.87,44.6-27.29,17.84-47.19,32.41-115.48,84.33-97.44,74.15-143.84,104.97-198.68,132.12-26.23,12.98-44.99,20.7-66.56,27.36l-10.65,3.26-11.05,11.05-11.05,11.05-3-3.86c-32.95-42.86-36.87-125.73-12.11-252.2,11.18-56.91,29.02-126.66,53.98-210.66,14.31-48.32,29.02-95.45,60.77-194.69,31.88-99.57,44.93-141.24,58.51-186.37,41.4-138.05,61.5-231.36,63.76-295.93l.4-12.45-116.01-77.34C5563.86,35.1,5511.34.22,5510.87.02c-.4-.13-1.2.4-1.66,1.2Z"/>
  <path class="cls-1" d="m2139.53,232.65l-11.32.47-198.68,49.79-198.62,49.72-16.11,9.92c-62.77,38.67-130.86,77.94-256.86,148.1-185.44,103.3-252.06,142.51-336.6,198.22s-125.6,88.06-175.39,138.31c-79.14,79.94-151.36,178.45-250.6,341.72-35.08,57.77-85.4,142.51-108.03,182.04-36.61,63.96-63.43,113.42-95.25,175.92-195.22,382.86-300.92,753.8-347.31,1218.85-27.42,274.36-35.81,592.25-27.02,1017.37,2.53,120.74,5.92,206.47,11.98,304.18,19.83,316.89,58.64,552.65,113.88,691.23,8.12,20.5,8.59,21.3,14.91,25.49,34.28,23.1,104.97,33.21,215.32,30.75,45.39-1,67.69-2.06,153.09-7.32,63.3-3.86,73.55-4.46,95.51-5.32,10.85-.4,1211.13-.67,3447.23-.67h3430.59l2.06-6.86c18.24-59.37,24.56-140.84,18.37-236.42-7.26-112.35-31.48-245.27-67.83-371.74-5.52-19.3-14.71-49.25-18.17-59.24-1.2-3.53-1.2-3.66,0-7.65,7.59-24.09,6.72-59.9-2.53-103.17-13.38-62.83-43.93-144.9-92.32-248.27-17.17-36.74-47.79-98.31-76.41-153.42-9.19-17.77-22.23-43.06-29.02-56.24s-15.04-29.09-18.37-35.28c-126.27-237.89-285.88-439.36-482.03-608.43-224.04-192.96-494.74-341.99-814.7-448.55-89.79-29.89-156.68-45.86-232.63-55.58-66.96-8.52-136.85-10.45-203.01-5.59-134.59,9.85-268.84,46.39-415.47,113.02-74.61,33.88-134.52,65.63-273.76,144.97-99.24,56.58-118.61,66.89-142.11,75.95-56.98,21.83-122,27.22-181.71,15.04-74.48-15.18-132.59-56.78-157.68-112.82-6.26-13.98-11.51-31.68-13.38-45.19-.47-3.33-1.86-9.12-3.06-12.98-16.97-52.98-12.65-110.69,13.84-186.04,8.92-25.29,19.1-49.99,43.73-106.03,24.56-55.91,33.75-77.88,44-105.63,35.74-96.65,46.39-176.19,34.21-255.26-3.46-22.43-6.92-36.94-17.17-71.89-101.5-346.65-239.68-630.99-418.73-861.29-159.48-205.07-351.17-366.88-579.14-488.75-301.39-161.08-668.73-251.4-1104.83-271.7-24.83-1.13-50.45-2.06-81.2-3.06-25.63-.8-175.05-1.33-191.69-.67h0Z"/>
  <path class="cls-2" d="m400.97,5186.14c-52.92,3.59-98.64,14.58-141.77,34.21-59.44,27.09-113.82,72.68-148.43,124.53-18.57,27.89-30.68,54.38-38.6,84.53-13.05,49.72-12.58,101.9,1.46,150.69,11.91,41.67,36.28,87.26,67.36,126.2,35.41,44.33,97.24,102.9,180.91,171.26,28.35,23.16,45.26,36.47,96.71,76.34,55.05,42.6,91.72,74.02,119.48,102.24,14.18,14.38,20.37,21.7,28.42,33.55,27.42,40,32.88,81.67,15.31,116.61-10.18,20.23-30.68,40.74-54.85,54.71-19.5,11.32-42.2,18.44-68.76,21.43-8.85,1-32.22,1-40.93,0-21.77-2.53-44.66-9.38-64.76-19.5-46.93-23.5-93.12-71.35-132.52-137.18-3.73-6.19-6.19-9.72-6.72-9.52-.93.33-212.79,120.81-213.26,121.27-.4.4,9.39,18.04,18.3,32.88,44.13,73.95,94.72,129.59,153.22,168.46,56.91,37.81,121.94,60.84,195.15,69.09,23.76,2.66,31.68,3.06,64.56,3.06s41.73-.4,65.56-3c88.59-9.72,162.41-39.8,224.04-91.25,9.72-8.12,30.88-28.75,39.14-38.14,46.79-53.31,73.02-114.22,80.27-186.83,1.46-14.71,2-45.59,1.06-60.5-5.92-90.85-40.4-161.81-117.08-241.15-35.28-36.47-55.51-53.51-203.21-170.86-57.84-45.99-104.5-84.66-140.04-116.15-18.3-16.24-44.2-42.4-49.72-50.25-8.45-11.98-14.71-26.16-17.24-38.94-.6-2.86-.93-8.72-.87-15.31.07-9.52.2-11.25,1.8-16.51,4.13-13.58,11.45-24.29,24.69-36.28,15.84-14.31,36.87-23.96,60.3-27.76,44.53-7.12,89.46,4.06,133.12,33.15,29.35,19.57,60.1,49.12,89.12,85.53,6.86,8.59,7.72,9.38,8.79,8.65,2.6-1.86,187.57-155.95,187.57-156.35.13-.8-22.3-24.36-38.54-40.54-58.64-58.44-111.42-97.84-163.61-122.14-46.53-21.63-92.92-34.21-144.9-39.34-12.51-1.2-57.38-1.8-70.55-.93h0Z"/>
  <path class="cls-2" d="m1539.22,5216.62c-.33.53-514.05,1253.6-516.97,1260.99l-1.26,3.13,132.52-.13,132.52-.2,51.52-123.8c28.35-68.09,52.78-126.73,54.25-130.33l2.73-6.46,273.96.13,273.9.2,52.32,130.26,52.32,130.33h132.32c112.55,0,132.32-.13,132.12-.93-.13-.53-115.68-285.01-256.79-632.32l-256.59-631.32-129.26-.07c-71.09,0-129.39.27-129.59.53h0Zm219.52,551.79c48.92,118.74,88.92,216.12,88.92,216.45,0,.4-66.29.67-179.45.67s-179.38-.2-179.18-.67c1.86-5.66,180.05-433.11,180.31-432.78.27.27,40.47,97.58,89.39,216.32Z"/>
  <path class="cls-2" d="m2555.86,5848.41v632.32h252.93l.13-414.74.2-414.8,288.54,414.6,288.54,414.6,121.67.2,121.61.13v-1264.65h-252.93l-.13,415.8-.2,415.87-289.27-415.67-289.27-415.67-120.87-.2-120.94-.13v632.32h0Z"/>
  <path class="cls-2" d="m3976.93,5848.41v632.32h252.93v-535.61l40.47-.4c102.24-1.13,173.19-6.59,219.45-16.84,19.57-4.33,48.72-13.84,70.42-22.96,13.58-5.66,39.4-18.84,51.92-26.36,58.11-35.28,101.97-82.14,128.99-137.91,27.62-56.91,38.34-127.66,30.82-203.67-6.52-66.83-27.76-124.14-64.43-174.12-16.91-22.96-39.87-46.39-62.17-63.43-31.28-23.83-69.95-43.26-108.03-54.31-50.25-14.51-114.95-23.23-200.28-27.02-34.35-1.53-85-2-219.45-2h-140.64v632.32h0Zm385.05-395.77c55.98,4.39,87.99,12.45,112.15,28.22,30.88,20.17,47.32,47.06,51.92,84.66,1,8.25.8,27.42-.33,36.14-3.59,27.49-14.78,49.85-34.15,68.49-19.24,18.37-42.13,28.89-74.68,34.15-30.09,4.86-61.9,6.32-136.91,6.32h-50.12v-259.72l59.11.33c46.33.27,62.03.53,73.02,1.4Z"/>
  <path class="cls-2" d="m5072.51,5848.41v632.32h730.17v-236.29h-477.24v-332.8h477.24v-232.3h-477.24v-228.3h477.24v-234.96h-730.17v632.32Z"/>
  <path class="cls-2" d="m5952.44,5334.9v118.81h238.29v1027.03h258.25v-1027.03h244.28v-237.62h-740.82v118.81Z"/>
  <path class="cls-2" d="m6910.9,5848.41v632.32h730.17v-236.29h-477.24v-332.8h477.24v-232.3h-477.24v-228.3h477.24v-234.96h-730.17v632.32Z"/>
  <path class="cls-2" d="m29.23,7459.77v732.23h289.54v-620.14l43.13-.4c133.05-1.4,220.31-9.12,272.96-24.16,100.57-28.75,179.51-80.4,234.69-153.42,34.01-45.06,56.71-98.78,66.83-158.35,4.39-25.49,6.06-44.26,6.52-73.55.8-48.66-3.66-89.92-14.24-131.79-20.63-81.8-67.03-153.95-131.32-204.47-29.49-23.16-67.09-43.93-103.24-56.98-56.64-20.57-138.84-33.41-244.54-38.41-42.47-2-58.57-2.13-235.76-2.46l-184.57-.33v732.23h0Zm399.69-459.86c68.22,1.8,113.49,8.52,145.97,21.57,31.28,12.65,57.51,36.67,70.95,64.96,9.52,20.23,13.31,38.87,13.31,65.56,0,17.84-.87,25.83-4.39,39.8-8.12,32.28-26.89,58.57-55.11,77.21-25.69,16.97-55.64,24.83-109.49,28.75-25.36,1.8-49.19,2.33-110.62,2.33h-60.77v-149.96c0-82.53.2-150.23.47-150.43.67-.67,81.8-.53,109.69.2Z"/>
  <path class="cls-2" d="m1594.8,6729.14c-.33.87-133.92,329.81-296.79,731.1-162.94,401.23-296.46,730.03-296.73,730.63-.4,1.06,9.65,1.13,151.56,1.13h152.02l61.17-148.63c33.68-81.67,61.77-149.69,62.43-151.09l1.2-2.46h313.83c226.44,0,313.9.2,314.23.73.2.4,27.29,68.29,60.17,150.89l59.7,150.23,151.89.2c83.47.07,151.82-.07,151.82-.27,0-.27-132.46-329.34-294.26-731.36-161.87-401.96-294.46-731.3-294.6-731.76-.27-.6-30.62-.8-148.7-.8h-148.36l-.6,1.46h0Zm252.46,638.51l102.1,250.27-103.17.2c-56.71.07-149.36.07-205.87,0l-102.7-.2,103.24-250.8c56.78-137.91,103.43-250.53,103.7-250.27.33.33,46.53,113.15,102.7,250.8Z"/>
  <path class="cls-2" d="m2684.99,7459.84v732.16h289.54v-479.9c0-263.98.2-479.9.53-479.9.27.07,149.29,215.99,331.2,479.9l330.8,479.9h278.62v-1464.33h-289.54v481.63c0,267.24-.27,481.43-.6,481.23-.27-.2-149.83-216.92-332.27-481.63l-331.74-481.23h-276.56v732.16Z"/>
  <path class="cls-2" d="m4163.29,6865.12v137.45l136.32.13,136.25.2.2,594.52.13,594.58h296.19v-1189.43h280.88v-274.89h-849.98v137.45Z"/>
  <path class="cls-2" d="m5289.49,7459.77v732.23h289.54l.13-310.04.2-309.97h29.95l172.39,309.84,172.39,309.84,159.61.2c87.73.07,159.55,0,159.55-.2,0-.13-81.2-146.23-180.44-324.61-99.31-178.38-180.51-324.75-180.58-325.28s4.06-2.4,11.51-5.13c134.25-49.25,218.52-127.53,255.99-237.95,14.38-42.33,21.23-84.53,22.1-136.38,1.66-97.51-20.03-178.38-66.83-249.47-32.68-49.65-75.08-89.99-124.67-118.61-10.52-6.06-32.28-16.71-43.93-21.5-55.91-23.03-141.37-37.21-254.93-42.4-43.4-2-60.04-2.13-237.09-2.46l-184.9-.33v732.23h0Zm427.32-459.2c65.03,3.06,96.78,8.72,124.27,22.23,41.53,20.43,68.82,56.11,76.88,100.57,1.4,7.79,1.53,10.58,1.53,27.62,0,20.43-.67,26.89-4.13,41.6-3.79,16.31-10.72,32.28-19.04,44.06-5.13,7.26-17.04,19.37-24.23,24.69-25.63,18.77-66.09,30.42-124,35.68-26.69,2.46-36.47,2.73-102.84,2.73h-65.89l-.2-149.43c-.07-82.2,0-149.83.2-150.36.33-.8,9.45-.87,61.77-.53,33.75.27,67.83.73,75.68,1.13h0Z"/>
  <path class="cls-2" d="m6459.83,6733.13c1.66,3.06,103.17,189.7,225.57,414.87l222.51,409.35.2,317.29.13,317.36h294.2l.13-317.36.2-317.29,220.85-407.68c121.47-224.24,222.64-410.88,224.77-414.87l3.86-7.12h-309.9l-142.24,262.71c-78.21,144.57-142.44,262.98-142.71,263.25s-64.83-117.95-143.44-262.71l-143.04-263.25h-314.1l3,5.46h0Z"/>
</svg>