<?xml version="1.0" encoding="UTF-8"?>
<svg id="Layer_1" data-name="Layer 1" xmlns="http://www.w3.org/2000/svg" viewBox="0 0 4100.86 4148.09">
  <defs>
    <style>
      .cls-1 {
        fill: #fff;
      }

      .cls-2 {
        fill: #9c1f1e;
      }

      .cls-3 {
        fill: #1e6938;
      }

      .cls-4 {
        fill: #231f20;
      }
    </style>
  </defs>
  <path class="cls-4" d="m0,3037.2v1107.62h217.65c119.79,0,217.88-.23,218.03-.53.15-.38.08-14.79-.15-32.09l-.53-31.48-1.97-4.93c-2.58-6.22-2.73-6.98-3.57-17.15-.53-6.75-1.06-9.18-2.73-12.52-1.9-3.64-2.2-5.23-2.66-15.17-.53-9.94-.83-11.61-3.03-17.07-2.28-5.61-2.5-6.83-3.11-19.27-.61-14.19-1.59-22.46-2.81-24.81-1.59-2.88-2.5-10.92-3.19-26.4-.53-13.66-.91-16.92-2.66-22.76-1.59-5.54-2.2-10.01-3.11-23.9-1.14-18.44-1.59-21.85-3.64-27.69-.99-2.81-1.52-7.97-1.97-20.1-.68-16.23-1.44-23.67-2.88-27.31-1.9-4.93-3.19-15.48-3.87-31.86-.68-14.19-1.14-18.66-2.28-22-2.12-6.07-3.03-15.48-3.49-35.66-.23-9.79-.68-19.19-1.06-20.86s-1.21-5.46-1.9-8.35c-1.37-5.84-2.58-26.32-3.03-50.45-.23-12.82-.61-16.61-1.9-21.62-2.12-7.97-2.96-22.76-3.41-62.59-.3-30.19-.68-36.49-3.11-55-1.97-14.41-2.58-35.66-2.5-82.69.08-61.98.46-69.8,5.16-102.27.46-2.88.61-5.46.46-5.77-.68-1.14.99-62.74,1.82-67.22.53-2.5,1.37-5.39,1.9-6.45.68-1.29,1.21-9.18,1.82-24.66.83-20.86,2.35-37.93,3.49-39.9,1.21-1.9,2.66-15.7,2.66-25.34,0-11.68,1.52-24.5,3.41-28.98.91-2.12,1.52-8.12,2.2-21.85.83-15.48,1.37-19.8,2.66-23.52,2.43-7.06,3.87-16.01,3.87-24.28,0-9.1,1.14-19.04,2.66-22.53,1.37-3.34,3.41-17.3,3.41-23.44,0-2.66.53-6.6,1.14-8.65.61-2.12,1.74-6.14,2.58-9.03,1.06-3.49,1.74-8.72,2.05-15.55.38-7.21.91-11.68,2.05-14.87,2.5-7.51,2.81-9.41,3.57-19.72.61-8.5,1.06-10.62,3.11-15.55,2.12-5.01,2.5-6.9,2.96-15.17.46-8.12.83-10.09,2.5-13.28,1.44-2.81,2.28-6.14,3.11-12.9s1.67-10.39,3.34-14.03c1.67-3.72,2.43-6.68,2.81-11.76.38-4.93,1.06-7.89,2.43-10.47.99-2.05,2.5-6.98,3.26-11,.76-4.1,2.43-9.56,3.64-12.21,1.44-2.96,2.5-6.75,2.88-9.86.3-3.34,1.37-6.68,2.96-9.94,1.67-3.26,2.66-6.52,2.96-9.79.3-3.64,1.06-5.84,2.81-8.5,1.74-2.73,2.5-5.16,3.03-9.1.38-3.03,1.14-5.99,1.74-6.68,1.82-2.2,2.96-4.93,4.02-9.86.53-2.66,2.05-6.68,3.34-8.88,1.37-2.43,2.43-5.61,2.73-8.04.23-2.2,1.29-5.46,2.28-7.13.99-1.74,2.5-5.69,3.34-8.65.83-3.03,2.28-6.9,3.26-8.65s2.05-4.48,2.35-6.14,1.52-4.78,2.73-6.98c1.21-2.12,2.81-5.77,3.41-7.97.68-2.2,2.12-5.77,3.34-7.89s2.43-5.23,2.73-6.83,1.52-4.7,2.66-6.83c1.21-2.05,2.81-5.69,3.64-7.97.76-2.28,2.28-5.77,3.41-7.81,1.06-2.05,1.97-4.32,1.97-5.01s1.21-3.57,2.73-6.37c1.44-2.81,3.19-6.45,3.72-8.04s1.9-4.17,2.88-5.84c1.06-1.59,2.12-4.02,2.43-5.39s1.67-4.4,3.11-6.75,2.58-4.63,2.58-5.01,1.52-3.79,3.34-7.66c1.82-3.79,5.08-10.7,7.28-15.25,2.12-4.63,4.25-8.88,4.63-9.48s1.37-2.66,2.2-4.55,2.12-4.48,2.73-5.69c.68-1.29,3.26-6.37,5.77-11.38,5.08-10.17,5.77-11.53,9.56-18.59,3.64-6.9,14.41-27.46,17.37-33.38,1.37-2.73,4.25-7.81,6.3-11.38s4.48-7.97,5.39-9.86,3.11-5.84,4.86-8.72c1.74-2.96,4.48-7.74,6.07-10.62,1.52-2.96,3.79-6.37,4.93-7.74,1.21-1.29,2.35-3.19,2.66-4.17s1.67-3.26,2.96-5.16c1.37-1.9,2.66-4.02,2.96-4.78.23-.68,2.43-4.55,4.86-8.57s5.01-8.35,5.84-9.63c.76-1.37,3.87-6.22,6.9-10.77,3.03-4.63,6.14-9.48,6.9-10.77,1.59-2.66,8.95-13.73,16.92-25.26,2.73-3.94,5.69-8.5,6.45-10.01.76-1.59,3.11-4.86,5.08-7.21,2.05-2.43,4.7-6.14,5.92-8.19,1.29-2.12,3.94-5.69,5.99-7.97,4.4-5.01,10.17-12.75,13.96-18.81,1.52-2.43,5.99-7.97,9.86-12.37,3.87-4.32,9.63-11.3,12.75-15.48s11.3-13.43,18.21-20.48c6.9-7.13,15.78-16.54,19.72-20.86,13.12-14.57,34.44-36.34,44.3-45.37,5.46-4.86,17.07-15.7,25.87-24.05,19.72-18.66,25.95-24.2,32.24-28.68,2.73-1.9,8.04-6.22,11.76-9.63,3.79-3.41,8.72-7.59,11-9.33,2.28-1.67,6.75-5.01,9.86-7.28,3.11-2.35,8.12-6.3,11.15-8.95,3.03-2.58,7.59-6.15,10.24-7.89s6.68-4.78,8.95-6.68c2.28-1.97,6.37-4.86,9.1-6.45,2.73-1.67,7.43-4.86,10.55-7.21,3.03-2.35,8.5-6.15,12.14-8.57,3.57-2.35,8.42-5.61,10.7-7.28s6.9-4.63,10.24-6.6c3.34-2.05,6.9-4.4,7.97-5.31,1.97-1.74,8.88-6.22,18.06-11.83,2.96-1.82,8.27-5.16,11.76-7.43,3.41-2.2,8.12-5.01,10.39-6.15s5.46-3.19,7.13-4.48c1.59-1.29,3.34-2.35,3.87-2.35s2.81-1.21,5.01-2.73c4.25-2.88,6.83-4.32,22.84-12.75,5.23-2.81,10.01-5.54,10.47-6.15.53-.61,2.2-1.44,3.79-1.9,1.52-.46,4.02-1.74,5.54-2.88,1.52-1.21,4.32-2.81,6.37-3.57,1.97-.76,5.01-2.28,6.68-3.49,1.67-1.14,4.25-2.35,5.69-2.58,1.44-.3,3.72-1.37,5.01-2.35s4.32-2.5,6.75-3.34c2.5-.83,5.23-2.28,6.14-3.11s3.19-1.9,5.01-2.28c1.74-.46,6.14-2.2,9.71-4.02s7.28-3.57,8.35-3.87,2.88-1.29,4.02-2.05c1.14-.83,3.79-1.97,5.92-2.5,2.05-.53,5.39-2.05,7.36-3.26,1.97-1.29,5.01-2.5,6.83-2.81,1.74-.3,4.25-1.37,5.54-2.43,1.44-1.29,4.1-2.28,7.43-2.96,2.88-.53,7.06-1.97,9.26-3.19,2.28-1.29,5.61-2.5,7.51-2.81s5.54-1.67,8.12-3.11,6.52-2.96,8.72-3.34c2.2-.46,5.23-1.67,6.75-2.66,1.59-1.14,4.63-2.28,7.36-2.73,5.54-.83,7.97-1.67,10.85-3.72,1.29-.99,4.32-1.82,7.97-2.28,4.32-.53,6.75-1.37,9.33-2.96,3.79-2.43,8.57-3.79,13.43-3.87,2.35,0,3.87-.61,5.99-2.28,2.12-1.74,3.64-2.28,6.07-2.28,5.31,0,11.91-1.59,16.31-3.87,3.19-1.67,5.23-2.2,8.42-2.2,4.55,0,5.69-.68,6.14-3.79l.23-1.9-653.34-.23L.04,1929.54v1107.62l-.04.04Z"/>
  <path class="cls-4" d="m1779.47,1930.26c-.83,1.29.99,4.55,2.73,4.93.99.23,3.79.53,6.3.76s6.75,1.29,9.41,2.35c3.94,1.67,6.75,2.2,15.55,2.73,9.48.68,11.23.99,15.25,2.96,3.72,1.82,5.92,2.28,12.14,2.73,6.6.38,8.35.83,13.28,3.19s6.6,2.81,12.14,2.96c5.61.23,7.13.61,11.76,2.96,4.25,2.12,6.6,2.73,11.83,3.19,5.39.46,7.13.99,9.63,2.73,2.81,1.9,8.35,3.19,15.02,3.49.46,0,2.2.91,3.79,1.97,1.9,1.29,5.01,2.35,8.95,3.03,4.1.76,7.13,1.82,9.56,3.34,2.5,1.59,5.16,2.5,9.1,3.03,4.25.61,6.15,1.29,7.59,2.66,1.29,1.29,3.49,2.2,6.52,2.73,2.58.46,6.22,1.82,8.72,3.34,2.66,1.67,5.92,2.88,8.88,3.34,2.5.38,5.61,1.44,6.75,2.2,1.14.83,4.55,2.28,7.43,3.26,2.96.91,6.83,2.66,8.72,3.79s5.16,2.35,7.21,2.66c2.12.3,4.86,1.37,6.15,2.35s4.17,2.28,6.45,2.96,5.16,1.97,6.45,2.96,3.79,2.12,5.69,2.66c1.82.46,4.55,1.67,5.99,2.58s4.1,2.28,5.77,2.96c1.74.68,4.78,2.2,6.75,3.49,2.05,1.29,4.86,2.73,6.37,3.19,1.52.53,4.1,2.05,5.69,3.49,1.67,1.37,3.41,2.5,3.87,2.5s3.03,1.52,5.69,3.41,5.16,3.41,5.54,3.41c.99,0,11.15,5.99,14.87,8.88,1.82,1.37,3.79,2.5,4.32,2.5s4.02,2.2,7.74,4.86c3.72,2.73,8.04,5.61,9.56,6.37,3.03,1.67,13.73,8.88,25.04,16.99,3.87,2.73,9.41,6.45,12.21,8.12,2.81,1.74,6.68,4.48,8.65,6.07,1.9,1.59,6.37,4.93,9.94,7.28,3.57,2.43,8.95,6.52,11.91,9.18,3.03,2.58,9.33,7.36,14.03,10.47,4.7,3.11,11.08,7.89,14.11,10.62s7.97,6.83,11,9.03c2.96,2.2,9.18,7.36,13.73,11.46,4.55,4.02,12.75,10.77,18.28,14.95s15.17,12.37,21.39,18.28c6.15,5.84,13.66,12.59,16.54,14.95,14.19,11.38,24.43,21.09,64.11,60.77,30.73,30.65,45.06,45.59,50.45,52.35,4.17,5.23,10.85,13.2,14.95,17.68,4.02,4.48,10.01,11.91,13.2,16.54s7.74,10.7,10.09,13.43c2.35,2.81,5.84,7.28,7.66,10.01s4.7,6.68,6.45,8.88c1.74,2.12,4.86,6.75,6.83,10.24,2.05,3.41,4.78,7.59,6.07,9.1s3.72,5.23,5.39,8.27c1.59,3.03,4.25,7.21,5.84,9.26,1.52,2.12,2.81,4.25,2.81,4.7,0,.53,1.14,2.43,2.58,4.25,1.37,1.82,3.26,4.7,4.17,6.37s3.19,5.61,5.01,8.72c5.99,10.32,21.01,38.39,23.59,44,.61,1.44,3.49,7.43,6.37,13.28,2.81,5.84,5.39,11.61,5.69,12.9.23,1.21,1.44,3.79,2.66,5.69s2.58,4.93,3.03,6.83,1.97,5.61,3.41,8.35c1.37,2.73,2.73,6.14,3.03,7.59s1.29,4.02,2.28,5.69c.91,1.67,2.12,4.93,2.66,7.21s2.12,6.37,3.49,8.95c1.44,2.66,2.81,6.45,3.11,8.35.23,1.97,1.59,5.61,2.96,8.12s2.88,6.75,3.34,9.41,1.82,6.68,3.03,8.95,2.43,5.92,2.66,8.42c.3,2.5,1.44,5.92,2.73,8.12,1.44,2.58,2.35,5.69,2.81,9.56.46,3.49,1.67,7.89,3.19,11.3,1.9,4.32,2.58,7.28,3.11,12.82.3,4.02,1.29,10.17,2.2,13.73,2.2,8.65,2.88,13.66,3.79,25.57.61,8.5,1.06,10.85,2.96,15.17,1.52,3.57,2.43,7.06,2.73,11.23.38,3.87,1.21,7.28,2.28,9.48.91,1.9,2.43,6.3,3.34,9.79.83,3.49,2.43,7.81,3.49,9.63,1.06,1.74,1.9,4.1,1.9,5.23,0,1.21,1.97,5.01,4.86,9.33,6.45,9.79,10.7,12.97,20.26,15.32,3.94.91,8.12,1.52,9.71,1.29,12.21-1.67,17.75-2.88,19.57-4.17,1.21-.76,3.87-2.28,5.92-3.26,2.66-1.29,7.36-5.39,15.55-13.58,9.33-9.33,12.52-13.12,15.48-18.21,2.12-3.57,4.86-7.81,6.15-9.48,1.37-1.67,3.41-4.78,4.55-6.83,3.94-6.9,11.46-21.17,14.41-27.31,1.59-3.34,4.17-8.72,5.84-11.99,1.59-3.26,2.88-6.6,2.88-7.28,0-.76,1.06-3.34,2.28-5.69,1.29-2.35,2.66-6.07,3.03-8.12.38-2.12,1.37-4.78,2.12-5.84.83-1.14,2.2-4.32,3.11-7.06s2.58-6.52,3.79-8.42c1.14-1.82,2.35-4.55,2.66-5.99.23-1.37,1.52-4.1,2.73-5.99s2.28-3.72,2.28-4.17c0-.38,1.59-3.94,3.49-7.97,1.97-3.94,5.08-10.47,6.9-14.41,1.9-3.94,4.55-9.48,5.99-12.21,1.44-2.81,2.58-5.46,2.58-5.99s1.29-3.57,2.96-6.75c1.59-3.19,3.11-7.06,3.41-8.72.3-1.59,1.37-4.17,2.43-5.69.99-1.52,2.2-4.86,2.58-7.28.46-2.5,1.59-6.07,2.58-7.97s2.43-5.99,3.19-9.1c.68-3.11,2.2-7.59,3.34-9.86s2.28-6.22,2.58-8.72c.3-2.73,1.37-6.3,2.73-8.88,1.21-2.35,2.81-7.13,3.49-10.62s2.28-8.12,3.41-10.39c1.74-3.19,2.2-5.08,2.2-8.72,0-2.81.46-5.54,1.21-6.9.68-1.29,1.74-3.19,2.35-4.25.53-1.14,1.74-5.39,2.58-9.48.91-4.17,2.28-8.88,3.19-10.55.91-1.82,1.74-5.61,2.12-9.41.53-4.55,1.37-7.97,3.26-12.14,1.82-4.02,2.73-7.43,3.11-11.46.3-3.34,1.14-6.98,2.05-8.72,2.81-5.54,3.72-8.95,4.1-16.46.3-5.69.83-8.42,2.28-11.53,1.29-2.81,2.05-6.45,2.66-12.29.61-5.99,1.44-9.79,3.11-13.96,1.74-4.4,2.43-7.74,3.03-14.41.61-6.98,1.14-9.63,2.96-13.43,1.67-3.57,2.43-6.68,3.03-12.52.53-5.31,1.37-9.03,2.58-11.61,2.58-5.61,4.17-12.44,4.17-18.28,0-3.94.46-6.22,1.9-9.33,1.29-2.66,2.2-6.52,2.73-11.3.53-5.16,1.59-9.33,3.49-14.19,2.35-5.84,2.81-8.04,3.26-15.55.46-7.28.91-9.48,2.58-13.12,1.74-3.64,2.2-5.92,2.73-13.66.53-7.51,1.06-10.47,3.03-15.7,1.9-5.16,2.5-8.35,3.11-15.93,1.44-19.04,2.05-23.9,3.57-27.31,1.44-3.26,1.52-5.54,1.59-54.62.15-51.28.83-65.7,3.19-71.77,1.74-4.55,3.72-17.3,3.72-24.05,0-6.07.3-7.74,2.28-12.44,1.59-3.72,2.5-7.74,3.11-13.2.68-5.99,1.44-8.88,3.11-12.14,2.12-4.1,4.4-14.26,4.02-18.13l-.15-1.9-559.57-.23c-338.58-.08-559.73.15-559.95.53h0l-.02-.07Z"/>
  <path class="cls-3" d="m2982.38,1930.34c-.61.46-.83,1.9-1.59,12.14-.76,8.8-1.21,12.14-2.73,17.83-.61,2.12-1.21,10.01-1.52,18.21-.91,28.45-1.82,38.92-3.87,43.7-1.67,4.1-1.9,5.92-2.58,23.97-.76,19.8-1.21,23.06-3.26,27.16-.76,1.52-1.44,6.6-2.05,15.17-1.06,17.07-1.97,23.37-3.72,26.78-1.37,2.66-2.05,8.19-3.57,27.08-.3,4.02-.99,6.9-1.97,8.5-1.14,1.97-1.67,5.16-2.5,15.93-1.29,15.63-1.52,16.84-3.72,21.01-1.37,2.58-1.82,5.46-2.66,16.01-.83,11-1.21,13.43-2.88,16.54-1.44,2.96-1.97,5.61-2.5,12.52-.99,12.06-1.44,14.41-3.41,18.44-1.29,2.5-2.05,5.92-2.73,12.9-.68,6.9-1.37,10.32-2.66,12.97-1.74,3.49-2.81,8.88-3.72,19.19-.3,3.34-1.14,6.6-2.28,8.88-1.9,3.64-2.96,8.88-3.79,19.19-.38,4.4-.99,6.98-2.35,9.26-1.44,2.58-2.05,5.01-2.66,11.76s-1.21,9.56-2.88,13.12c-2.2,4.7-3.87,13.35-3.87,20.33,0,2.88-.61,5.23-2.28,8.5-1.52,3.11-2.28,5.69-2.28,8.12,0,5.23-1.9,14.11-4.1,18.81-1.44,3.19-2.12,6.45-2.73,13.66-.76,7.59-1.29,10.09-2.73,12.67-1.37,2.35-2.05,5.16-2.66,11-.61,5.92-1.37,8.95-3.03,12.52-1.67,3.49-2.5,6.98-3.26,13.05-.83,6.52-1.44,8.8-3.03,11.15-1.44,2.12-1.97,3.87-1.97,6.45,0,4.32-1.59,9.71-3.72,12.75-1.06,1.44-2.05,4.7-2.66,8.65-.76,4.32-1.74,7.36-3.03,9.33s-2.2,4.86-2.73,8.65c-.53,3.94-1.44,6.68-3.03,9.1-1.37,2.12-2.5,5.39-3.11,8.72-.53,3.41-1.52,6.07-2.66,7.43-.99,1.14-1.97,3.34-2.2,4.93-.83,4.86-2.05,8.04-3.94,10.62-.99,1.29-2.28,4.7-2.88,7.43-.53,2.73-1.9,6.22-2.96,7.74-.99,1.59-2.12,4.17-2.35,5.84-.3,1.67-1.82,5.23-3.41,7.97s-3.11,6.14-3.41,7.59-1.29,3.72-2.28,4.93c-.99,1.29-2.43,4.78-3.34,7.74s-2.35,6.3-3.26,7.43c-.83,1.14-1.9,3.64-2.28,5.54-.38,2.2-1.44,4.4-2.81,5.84-1.21,1.29-2.73,4.17-3.41,6.52s-1.74,4.7-2.43,5.23c-1.67,1.44-3.34,4.93-3.34,7.13,0,1.14-1.06,3.19-2.58,4.78-1.37,1.59-2.88,4.17-3.34,5.77s-2.05,4.25-3.49,5.92c-1.52,1.59-2.73,3.41-2.73,4.02,0,.53-.99,2.43-2.28,4.1-1.21,1.74-2.28,3.41-2.28,3.64,0,1.06-2.66,6.14-4.32,8.12-.91,1.14-2.05,3.41-2.5,4.93-.38,1.59-1.74,3.87-3.03,5.08-1.21,1.14-2.66,3.34-3.11,4.86s-1.82,3.72-2.96,5.01c-1.14,1.21-2.5,3.11-3.03,4.1s-2.05,3.34-3.49,5.16c-1.44,1.9-2.58,3.87-2.58,4.4,0,.61-1.37,2.66-3.03,4.55s-3.03,3.94-3.03,4.48-.83,1.82-1.82,2.81c-.99,1.06-2.66,3.41-3.64,5.23-.99,1.9-2.58,4.25-3.49,5.31-.83,1.06-3.11,3.72-5.01,5.92s-3.49,4.32-3.49,4.63c0,.38-1.14,2.12-2.58,3.79-1.44,1.74-2.88,3.87-3.19,4.78-.3.99-3.11,4.63-6.3,8.27-8.19,9.33-10.62,12.44-11.83,15.25-.61,1.37-3.11,4.7-5.69,7.43-14.03,14.95-19.12,21.01-22.61,26.86-.68,1.21-4.48,5.69-8.35,9.86-6.52,6.98-11.68,13.73-15.7,20.48-.83,1.44-2.28,3.57-3.26,4.78-4.93,6.22-7.13,9.18-8.19,11.53-1.21,2.66-3.34,5.54-9.18,12.21-1.74,2.05-3.34,4.48-3.64,5.46s-1.14,2.43-1.82,3.26c-.76.83-2.2,3.03-3.26,4.93-1.14,1.9-2.88,4.25-3.94,5.23-1.06,1.06-1.97,2.28-1.97,2.81s-1.21,2.5-2.66,4.4c-1.44,1.97-2.66,3.79-2.66,4.17,0,.3-1.14,2.05-2.43,3.87-3.11,3.94-6.68,9.63-9.63,15.25-1.21,2.28-2.81,4.7-3.57,5.23-.68.61-1.9,2.66-2.73,4.48-.76,1.82-2.28,4.4-3.34,5.69-2.96,3.49-8.65,13.5-8.65,15.17,0,.76-.83,2.35-1.82,3.57-.99,1.14-2.43,3.79-3.19,5.77s-2.43,5.31-3.79,7.43c-1.29,2.05-2.66,4.78-2.88,6.07-.3,1.21-1.74,3.49-3.19,5.08s-2.58,3.57-2.58,4.4-1.37,3.03-3.03,4.86-3.03,3.64-3.03,4.1-.83,1.82-1.9,3.03c-1.06,1.29-2.43,3.79-3.03,5.54-.68,1.82-2.35,5.01-3.72,7.13-1.82,2.66-2.73,5.01-3.03,7.97-.61,5.23-1.82,8.95-3.64,11.46-3.11,4.17-3.34,30.35-.3,36.19,1.9,3.72,11.08,10.01,14.64,10.01.76,0,5.16-.83,9.71-1.82,4.63-1.06,10.55-2.28,13.2-2.81,2.81-.53,5.61-1.67,6.9-2.66,2.5-2.2,5.46-3.34,8.35-3.34,1.44,0,3.34-.99,5.69-3.03,2.81-2.43,4.1-3.03,6.52-3.03s3.49-.46,5.08-2.2c2.81-2.96,4.78-3.87,8.42-3.87,2.35,0,3.49-.46,4.7-1.82.99-1.14,3.19-2.2,5.54-2.81,4.48-1.06,6.15-1.82,8.95-4.1,1.06-.91,3.34-1.9,5.01-2.12,1.59-.3,4.25-1.52,5.84-2.81s4.7-2.81,6.9-3.49c2.2-.61,4.4-1.67,4.93-2.28,1.29-1.52,4.25-3.03,7.51-3.72,1.44-.3,3.87-1.52,5.39-2.73,1.44-1.14,4.32-2.5,6.37-3.03,1.97-.53,4.7-1.9,6.07-3.11,1.74-1.44,3.94-2.43,6.9-2.96,2.5-.46,5.69-1.67,7.21-2.66,1.59-1.06,4.93-2.43,7.51-3.03,2.88-.68,5.77-1.97,7.59-3.41,2.2-1.82,4.02-2.5,7.43-2.88,3.11-.38,5.54-1.21,7.51-2.58,1.82-1.21,5.08-2.5,8.27-3.11,2.88-.53,6.83-1.9,8.8-2.88,1.97-1.06,5.84-2.35,8.72-2.81,3.03-.53,6.3-1.67,7.89-2.81,1.67-1.14,5.08-2.28,9.1-3.03,3.64-.68,7.51-1.9,9.1-2.96,2.43-1.59,6.45-2.66,13.66-3.79,1.59-.23,3.72-1.14,4.86-1.97,2.58-2.12,8.12-3.72,12.52-3.72,2.43,0,4.17-.46,5.54-1.52,1.29-.99,4.93-2.12,10.09-3.11s9.63-2.35,12.52-3.87c3.34-1.74,5.69-2.43,9.94-2.66,3.94-.3,6.45-.91,8.72-2.2,3.19-1.82,6.83-2.73,15.93-4.02,2.58-.38,5.61-1.37,6.83-2.28,1.37-.99,5.16-2.05,10.85-2.96,5.46-.91,9.79-2.12,11.61-3.19,1.67-.99,6.07-2.2,10.85-3.03,4.7-.83,8.57-1.9,9.41-2.66.76-.68,4.93-1.82,10.32-2.73,5.01-.91,9.86-2.05,10.92-2.66,4.48-2.66,7.59-3.64,13.05-4.02,4.02-.3,6.22-.91,7.28-1.82,1.74-1.59,11.38-4.32,15.25-4.32,1.44,0,4.25-.99,6.52-2.28,2.58-1.52,5.99-2.58,10.32-3.26,4.1-.68,7.28-1.67,8.72-2.66,1.44-1.06,4.7-1.97,9.33-2.73,4.86-.76,7.89-1.67,9.48-2.81,1.29-.99,5.01-2.2,9.1-3.03s7.74-2.05,9.1-3.03c1.29-.99,5.01-2.28,9.03-3.03,5.08-1.06,7.36-1.9,8.88-3.34,2.35-2.28,5.92-3.41,10.7-3.41,2.66,0,3.87-.38,5.23-1.9,2.2-2.28,5.16-3.34,10.85-3.64,3.11-.23,4.78-.76,6.07-1.9,2.58-2.43,6.9-3.94,11.08-3.94,2.88,0,4.25-.46,5.99-1.9,3.34-2.81,7.21-4.17,11.68-4.17,2.96,0,4.63-.46,6.68-1.9,1.74-1.21,4.48-2.12,7.97-2.58,6.3-.91,9.71-2.05,12.97-4.25,1.52-1.06,4.7-1.97,8.65-2.5,3.49-.53,7.28-1.44,8.42-2.05,1.21-.61,3.19-1.67,4.32-2.28s4.93-1.44,8.42-1.82c4.7-.53,6.68-1.06,7.97-2.35,1.29-1.14,3.72-1.9,8.12-2.66,8.65-1.37,10.62-1.9,12.82-3.49,1.06-.76,5.46-2.12,9.79-2.96,5.23-.99,8.88-2.12,10.62-3.34,2.73-1.82,8.88-3.34,13.66-3.41,1.52,0,3.19-.61,4.17-1.52,1.14-1.06,4.25-2.05,9.86-3.11,5.16-.99,9.79-2.43,12.29-3.79,2.43-1.29,5.92-2.35,8.5-2.66,6.83-.76,8.27-1.14,10.01-2.66.91-.83,3.26-1.67,5.16-1.9,7.97-1.06,12.14-2.12,15.7-4.17,2.43-1.37,5.99-2.5,9.86-3.11,3.34-.53,7.51-1.74,9.26-2.66,3.34-1.9,11.3-4.1,14.95-4.1,1.14,0,3.11-.83,4.32-1.9,2.73-2.28,6.68-3.41,11.76-3.41,2.88,0,4.4-.46,6.3-1.9,1.44-.99,4.17-2.05,6.07-2.35,6.83-.91,12.06-2.43,15.32-4.32,1.9-1.06,5.77-2.28,9.03-2.81,3.34-.53,7.89-1.97,11-3.41,3.72-1.82,6.75-2.73,10.17-2.96s5.54-.83,7.13-2.05c1.52-1.14,4.93-2.12,10.17-3.11,5.01-.91,8.72-1.97,10.01-2.96,1.29-.91,5.16-2.12,9.63-3.03,4.4-.83,8.35-2.05,9.56-2.96,2.28-1.67,9.56-3.79,13.05-3.79,1.21,0,3.79-1.06,5.77-2.28,2.73-1.74,5.16-2.5,9.94-3.19,4.02-.53,6.98-1.37,7.89-2.2,2.66-2.35,6.98-3.72,11.53-3.72,3.79,0,4.86-.3,7.13-2.2,2.96-2.5,7.21-3.87,11.76-3.87,2.35,0,3.87-.61,5.99-2.28,3.26-2.66,6.9-3.79,11.83-3.79,2.73,0,4.1-.46,6.3-2.2,2.88-2.35,8.57-3.94,13.28-3.72,1.67.08,2.81-.38,3.26-1.21,1.14-1.97,5.99-4.1,10.77-4.55,3.11-.38,5.08-1.06,6.68-2.35,1.29-1.06,4.02-2.2,6.75-2.73,2.66-.53,5.54-1.67,6.75-2.73,2.5-2.05,6.9-4.02,9.03-4.02.76,0,2.81-1.14,4.55-2.58,2.05-1.74,4.17-2.73,6.68-3.11,2.58-.38,4.48-1.29,6.45-3.11,2.2-1.97,3.57-2.58,5.69-2.58s3.41-.61,5.54-2.66c1.9-1.82,3.79-2.81,6.3-3.34,2.43-.46,4.17-1.37,5.69-2.96,1.52-1.67,3.26-2.5,5.54-2.88,1.9-.3,3.95-1.29,4.86-2.28s3.57-2.43,5.92-3.34,4.48-1.97,4.78-2.35c.23-.38,2.12-1.59,4.17-2.58,2.05-1.06,4.63-2.88,5.69-4.1s2.88-2.43,3.95-2.73c2.28-.53,11.61-6.45,14.64-9.26,1.14-.99,3.03-2.43,4.32-3.11,9.33-5.16,14.11-8.88,26.33-20.64,4.63-4.4,10.39-9.33,12.9-11,5.46-3.72,13.35-11.15,36.79-34.59,24.35-24.5,27.77-28.07,33.76-35.96,2.81-3.79,10.32-12.14,16.61-18.59,16.23-16.61,21.85-23.14,28.37-33.15,1.14-1.74,4.48-5.61,7.36-8.72,6.22-6.45,12.06-13.96,15.02-18.97,1.14-1.9,3.72-5.31,5.69-7.59,5.16-5.61,8.95-10.92,11.08-15.4.99-2.12,2.58-4.48,3.49-5.31s2.5-3.03,3.57-4.93c3.79-7.13,7.13-12.44,9.33-14.95,1.29-1.37,2.28-3.03,2.28-3.57,0-.61.53-1.44,1.21-2.05.61-.53,1.97-2.5,2.96-4.4,1.9-3.87,12.44-14.79,28.9-30.19,16.08-15.02,20.03-22.23,20.03-36.64,0-11.23-.99-15.63-4.4-19.65-3.64-4.25-12.52-10.47-15.93-11.15-1.37-.3-3.87-1.67-5.54-3.03-1.97-1.59-3.95-2.58-5.23-2.58-2.81,0-5.77-1.14-9.1-3.41-1.9-1.29-4.25-2.05-7.59-2.35-3.19-.3-6.83-1.37-10.24-2.96-4.02-1.9-7.43-2.73-14.03-3.64-4.78-.61-10.39-1.9-12.52-2.81-2.05-.91-6.52-1.97-9.86-2.35s-8.95-1.06-12.52-1.52c-3.57-.38-8.35-1.29-10.62-1.9-4.17-1.21-12.67-2.28-31.48-4.1-5.39-.53-11.38-1.44-13.28-2.05-5.69-1.82-11.83-2.5-27.39-3.26-15.32-.68-22.91-1.67-28.6-3.49-1.97-.61-9.79-1.37-20.1-1.82-19.8-.91-28.98-1.9-37.33-3.79-8.12-1.9-21.62-2.88-45.9-3.41-11.08-.23-23.37-.76-27.31-1.21-21.09-2.12-26.17-2.2-45.06-.46-7.81.68-21.32,1.44-29.97,1.67-18.43.46-35.96,1.74-39.15,2.73-5.31,1.74-15.55,3.03-33.38,4.17-13.88.83-20.1,1.59-23.21,2.58-2.35.83-8.57,1.82-14.41,2.28-21.55,1.67-29.21,2.5-32.17,3.57-4.25,1.52-16.84,3.26-23.29,3.26-7.28,0-19.35,1.82-22.23,3.34-1.37.68-6.22,1.44-12.37,1.97-14.87,1.21-20.48,2.05-25.57,3.79-2.73.99-9.1,2.05-15.93,2.73-8.35.83-12.52,1.59-15.55,2.96-4.02,1.67-16.16,4.17-20.56,4.17-1.14,0-3.26.68-4.63,1.44-3.03,1.82-6.83,2.81-14.26,3.87-3.87.53-6.52,1.44-8.42,2.73s-4.93,2.28-9.56,3.11c-4.4.68-7.21,1.59-8.27,2.58-1.82,1.67-7.81,3.72-10.92,3.72-1.06,0-3.11.83-4.48,1.82s-5.01,2.43-8.12,3.11c-3.26.68-6.52,1.97-7.74,2.96-2.66,2.28-4.48,3.19-7.66,3.79-1.37.23-3.64,1.44-5.08,2.66-1.59,1.44-3.79,2.43-5.99,2.81-2.35.3-4.48,1.37-6.52,3.03-1.9,1.59-4.32,2.81-6.15,3.11-1.82.23-4.17,1.37-5.61,2.73-1.44,1.21-3.95,2.5-5.69,2.88-1.67.38-4.32,1.67-5.84,2.88-1.59,1.14-4.4,2.73-6.3,3.41-1.97.68-4.17,1.97-4.86,2.73-.76.83-2.66,1.9-4.25,2.28-1.59.46-3.87,1.59-5.01,2.58s-3.64,2.43-5.54,3.34c-1.9.83-4.4,2.43-5.69,3.57-1.21,1.14-3.34,2.58-4.7,3.11-1.29.61-2.66,1.37-2.88,1.82-.3.46-2.28,1.67-4.4,2.81-2.2,1.06-7.06,4.78-10.92,8.19-3.79,3.49-8.88,7.74-11.38,9.41-2.43,1.74-6.15,4.55-8.27,6.37-7.21,5.92-28.37,25.64-29.13,27.16-.46.76-2.05,1.97-3.64,2.66-1.52.61-3.64,1.97-4.7,2.88-1.06.99-3.64,2.66-5.77,3.72-2.05,1.06-4.25,2.5-4.78,3.11-.53.68-2.43,1.59-4.17,2.05-1.67.46-4.63,1.74-6.52,2.96-4.48,2.81-11.38,3.79-26.1,3.87-13.43,0-17.98-.83-24.66-4.32-2.66-1.44-5.23-2.58-5.61-2.58-.46,0-4.17-3.49-8.19-7.74-5.61-5.84-7.51-8.35-7.89-10.39-.23-1.52-1.29-4.55-2.35-6.83-2.58-5.77-2.43-11.61.53-20.56,1.29-3.94,2.58-9.56,2.88-12.59.46-3.57,1.21-6.14,2.28-7.59.83-1.21,1.9-4.1,2.35-6.37.46-2.5,1.82-5.69,3.34-7.97,1.44-2.12,2.81-5.01,3.11-6.45s1.44-4.02,2.58-5.69c1.21-1.67,2.73-4.93,3.49-7.21s2.28-5.69,3.49-7.43c1.14-1.82,2.5-5.16,2.96-7.36s1.52-4.63,2.28-5.31,1.82-3.19,2.35-5.54c.46-2.43,1.97-5.84,3.41-7.89,1.52-2.28,2.66-5.08,2.96-7.28.3-1.97,1.52-5.69,2.73-8.27,1.37-2.96,2.73-7.81,3.64-13.05.76-4.55,1.97-9.26,2.73-10.39s2.12-6.52,3.11-12.14c.99-5.54,2.35-11,3.03-12.06.83-1.29,1.82-5.92,2.66-12.97,1.06-7.81,1.97-12.14,3.26-14.95,1.29-2.73,2.2-6.83,2.96-13.12.68-5.84,1.67-10.17,2.66-12.14,1.74-3.41,2.88-9.26,3.64-18.13.3-3.79,1.14-7.59,2.2-9.94,2.28-5.23,2.5-6.22,3.72-20.56.76-8.8,1.44-12.75,2.35-14.19,1.37-2.05,2.2-7.66,3.03-20.18.68-10.24,1.74-17.22,3.11-19.8,1.37-2.66,3.03-15.78,3.72-28.68.3-7.36.76-10.01,2.05-12.52,1.29-2.58,1.82-6.15,2.96-20.41,1.06-13.2,1.74-18.13,2.88-20.64,1.59-3.57,2.81-12.14,3.79-26.25.46-6.22.99-9.33,1.97-10.77,1.37-2.12,2.2-7.66,3.41-21.92.53-6.45,1.21-9.94,2.5-12.9,1.9-4.32,2.58-7.81,3.57-19.95.46-5.92,1.06-8.42,2.66-11.46,1.67-3.19,1.97-4.93,2.12-10.47l.15-6.6-48.02-.15c-26.48-.08-48.33,0-48.55.23h0l-.04.04Z"/>
  <path class="cls-4" d="m3173.02,1930.18c-.46.3-.91,4.25-1.06,8.88-.15,4.55-.38,8.65-.61,8.95-.68,1.14-2.5,24.35-2.5,32.77-.08,5.54-.46,9.33-1.21,11.38-2.66,6.83-3.26,9.86-4.1,18.28-.53,5.92-1.37,10.09-2.35,12.37-2.5,5.46-3.72,10.7-3.72,16.08,0,4.1-.38,5.77-2.2,9.18-1.44,2.73-2.73,6.83-3.49,11.3-.83,4.63-2.12,8.95-3.87,12.37-2.05,4.17-2.58,6.22-2.58,9.71s-.53,5.39-1.97,8.27c-1.14,2.12-2.66,6.9-3.41,10.62-.76,3.64-2.28,8.5-3.41,10.7-1.44,2.88-2.2,5.84-2.66,10.32-.38,4.7-1.06,7.13-2.66,9.79-1.52,2.66-2.28,5.46-3.11,11.53-.76,5.92-1.67,9.33-3.41,12.97-2.12,4.4-2.43,5.92-2.88,14.41-.38,7.59-.76,10.01-2.05,12.14-2.12,3.57-3.11,8.57-3.57,18.66-.46,8.04-.99,10.7-3.87,18.51-.83,2.28-1.44,7.51-1.9,15.55-.53,10.47-.91,12.75-2.58,16.84-1.59,3.79-2.2,7.21-3.03,16.69-.68,7.59-1.52,13.12-2.35,15.02-2.66,6.15-4.17,12.29-4.17,16.92,0,3.79-.46,5.84-2.35,9.63-3.19,6.68-3.94,15.7-1.52,18.74.91,1.06,3.19,2.73,5.16,3.72l3.49,1.67,2.96-1.67c1.82-.99,5.08-1.9,8.12-2.28,4.02-.38,5.69-.99,7.59-2.58,1.37-1.06,3.87-2.35,5.61-2.81,4.55-1.21,7.43-2.35,9.71-3.94,1.14-.76,4.25-1.9,6.83-2.58,2.66-.68,6.22-2.05,7.89-3.03,1.74-.99,5.61-2.28,8.72-2.96s7.06-2.05,8.65-3.19c2.12-1.37,4.55-2.12,8.57-2.58,4.17-.46,6.75-1.29,10.39-3.34,3.87-2.12,6.07-2.81,10.32-3.19,4.1-.38,6.15-.99,8.57-2.5,2.5-1.67,4.4-2.2,8.95-2.5,4.4-.3,6.9-.99,10.47-2.81,2.96-1.44,7.28-2.73,11.68-3.49,3.87-.68,7.81-1.74,8.8-2.43,3.95-2.81,5.23-3.19,10.24-3.19,4.48,0,6.22-.46,11.76-3.03,4.93-2.2,8.12-3.19,12.9-3.72s6.68-1.06,8.04-2.35c2.05-1.9,6.07-2.96,11.38-3.03,2.81,0,5.39-.76,9.48-2.73,4.25-1.97,7.43-2.88,12.44-3.57,5.46-.68,6.98-1.14,8.42-2.66,1.44-1.59,2.66-1.9,9.56-2.5,8.8-.68,10.92-1.21,15.86-3.72,2.81-1.44,5.23-1.9,13.28-2.35,12.52-.76,15.86-1.21,20.18-3.03,3.79-1.52,13.35-2.58,32.93-3.64,6.98-.38,13.88-1.21,16.31-1.9,6.98-2.05,20.79-3.41,37.93-3.79,12.21-.23,16.99-.61,18.97-1.44,1.44-.61,4.7-1.52,7.21-2.05,4.1-.76,44.08-2.5,54.24-2.35,2.28.08,5.92-.23,7.97-.68,23.59-4.86,38.39-5.46,112.66-5.08,62.13.3,69.04.61,80.04,3.11,10.55,2.43,13.88,2.73,33.23,3.41,19.12.68,20.48.83,24.28,2.58,3.41,1.59,5.77,1.97,17.98,2.73,12.52.68,14.79,1.06,20.79,3.19,5.39,1.82,8.8,2.5,17.07,3.11,7.89.61,10.92,1.14,12.97,2.28,3.26,1.9,11.15,3.64,16.54,3.64,3.11,0,5.16.61,9.33,2.81,4.7,2.43,6.22,2.88,12.37,3.26s7.43.68,9.48,2.43c1.52,1.29,3.64,2.2,5.99,2.5,7.36.91,8.35,1.21,11.68,3.41,2.05,1.37,4.93,2.43,7.13,2.73,2.05.3,5.77,1.59,8.27,2.96s6.3,2.88,8.35,3.34c2.12.53,5.23,1.9,6.9,3.11,1.74,1.21,4.48,2.5,6.07,2.88,1.67.38,4.78,1.97,7.06,3.49,2.2,1.52,4.4,2.73,4.93,2.73.46,0,2.81,1.29,5.16,2.88,2.35,1.52,6.6,4.17,9.33,5.84,7.59,4.48,12.06,7.97,20.41,15.7,10.85,10.09,17.75,18.36,21.7,25.87,3.34,6.45,6.15,9.1,8.27,7.74.61-.3.83-62.89.83-209.08v-208.55h-445.48c-245.04,0-445.93.3-446.31.61h-.02Z"/>
  <path class="cls-2" d="m295.42.47c-38.25,2.08-75.77,15.03-105.71,36.29-14.66,10.39-36.29,31.89-46.19,46.07-20.29,28.72-29.82,58.9-29.94,94.71-.12,28.23,4.28,47.66,16.86,74.18,12.34,26.03,27.37,46.44,54.99,74.79,27.74,28.59,66.36,62.57,114.87,101.55,24.69,19.8,48.64,40.69,62.32,54.26,19.92,19.92,29.09,33.85,33.73,51.82,5.74,22.49.49,39.97-17.23,57.68-28.23,28.11-74.92,33.11-112.55,11.86-22.49-12.71-46.44-38.13-64.77-69.17-3.66-6.11-7.21-11-7.94-10.88-3.06.86-114.14,67.34-114.14,68.44,0,1.84,12.46,23.71,20.9,36.54,22.61,34.47,45.59,58.54,73.82,77.48,39.84,26.76,83.1,38.87,138.1,38.87,71.62,0,126.24-21.26,168.77-65.38,26.27-27.37,42.77-59.76,49.62-97.52,3.54-20.04,3.54-54.75,0-74.54-9.66-53.28-39.35-97.27-101.67-150.8-11.12-9.53-39.72-33.61-63.54-53.4-102.65-85.42-116.83-100.82-116.71-126.97.12-12.34,3.42-19.55,13.32-29.09,13.2-12.71,26.76-17.84,47.17-17.84,20.41.12,39.97,6.84,59.76,20.9,10.14,7.21,31.53,28.47,41.67,41.31,4.16,5.38,7.94,9.9,8.43,10.02.86.36,100.7-85.91,101.31-87.38.49-1.34-25.79-29.21-40.09-42.41C422.64,18.19,366.43-3.57,295.42.47h0Z"/>
  <path class="cls-2" d="m883,19.54c-.49,1.22-63.06,160.7-139.32,354.52-76.14,193.82-138.46,352.56-138.46,352.94,0,.24,32.26.36,71.62.24l71.74-.36,28.84-71.49c15.89-39.35,29.33-72.22,29.82-73.08.86-1.1,31.77-1.46,148.12-1.46h147.14l2.32,6.36c1.34,3.54,12.96,33.73,25.91,66.97,12.96,33.24,24.56,63.42,25.91,66.84l2.32,6.48h71.49c39.23,0,71.37-.36,71.37-.98,0-.49-62.45-160.21-138.95-355.01L1023.91,17.46h-70.02c-65.62,0-70.14.12-70.88,2.08h0Zm120.5,309.91c25.66,65.02,46.56,118.79,46.56,119.4,0,.86-33.73,1.22-95.44,1.22h-95.44l.74-2.94c.49-1.96,80.9-205.8,93.85-237.81.81-1.96,1.55-2.16,2.2-.61.49,1.34,21.87,55.6,47.54,120.74h-.01Z"/>
  <path class="cls-2" d="m1414.23,372.46v355.01h138.1l.24-232.07.36-232.07,154.59,232.07,154.59,231.95,66.36.12h66.24V17.46h-138.1l-.24,232.93-.36,232.93-154.59-232.68-154.72-232.56-66.24-.36-66.24-.24v355.01h0v-.03Z"/>
  <path class="cls-2" d="m2162.14,372.34v355.14h138.1v-300.63h17.48c41.43,0,93.61-3.79,117.07-8.56,41.67-8.43,85.67-33.37,111.94-63.3,21.51-24.81,34.46-50.72,41.31-83.47,4.4-20.41,5.5-58.78,2.56-81.39-6.11-46.07-23.59-83.22-53.28-112.92-29.69-29.69-63.92-45.22-117.32-53.04-35.19-5.14-50.11-5.74-155.45-6.36l-102.41-.61v355.14h-.01,0Zm224-219.98c27.13,3.79,41.31,9.66,54.38,22.36,13.56,13.2,19.55,31.04,18.21,54.02-1.1,18.94-6.84,32.01-19.31,44.36-17.6,17.23-39.23,21.75-104.61,21.75h-34.59v-71.86c0-39.59.36-72.34.98-72.96,1.46-1.46,70.39.36,84.93,2.32h.01Z"/>
  <path class="cls-2" d="m2732.84,372.46v355.01h395.95l-.24-66.36-.36-66.24-129.17-.36-129.3-.24v-185.75l129.3-.24,129.17-.36v-129.54l-129.3-.36-129.17-.24.24-63.92.36-63.79,129.3-.36,129.17-.24V17.46h-395.95v355.01h0Z"/>
  <path class="cls-2" d="m3182.56,84.06v66.6h128.32v576.82h140.54V150.66h131.98V17.46h-400.84v66.6h0Z"/>
  <path class="cls-2" d="m3681.17,372.46v355.01h395.95l-.24-66.36-.36-66.24-129.17-.36-129.3-.24v-185.75l129.3-.24,129.17-.36v-129.54l-129.3-.36-129.17-.24.24-63.92.36-63.79,129.3-.36,129.17-.24V17.46h-395.95v355.01h0Z"/>
  <path class="cls-2" d="m1499.08,1995.58c-79.81.46-92.48.76-98.47,2.58-1.59.46-16.46,1.74-30.95,2.66-8.19.53-11.38.99-13.66,2.2-4.4,2.28-8.95,3.26-17.07,3.94-5.61.46-7.89.99-9.48,2.2-2.58,1.82-10.01,3.87-14.34,3.87-1.67,0-4.25.68-5.69,1.44-7.13,4.02-8.8,4.63-13.12,4.63-3.79,0-4.86.3-7.36,2.35-2.28,1.82-4.02,2.5-8.04,3.03-2.88.3-5.61.61-6.14.68-.53,0-2.12,1.06-3.64,2.35-2.12,1.9-3.64,2.43-8.04,3.03-3.72.46-6.22,1.21-7.81,2.43-2.96,2.2-4.32,2.73-9.48,3.64-2.66.38-4.86,1.29-6.07,2.5-2.58,2.43-5.46,3.49-9.48,3.49-2.35,0-3.64.46-4.7,1.59-2.05,2.28-4.7,3.49-8.88,4.1-2.35.38-4.63,1.44-6.83,3.11-2.5,1.97-3.87,2.58-6.37,2.58-2.66,0-3.79.46-5.99,2.58-2.12,1.97-3.64,2.66-7.59,3.34-3.64.61-5.61,1.37-7.51,3.03-1.52,1.44-4.1,2.58-6.6,3.11-2.35.53-4.86,1.67-5.99,2.81-1.14,1.06-3.49,2.28-5.31,2.66s-4.78,1.82-6.6,3.03c-1.82,1.29-5.01,2.81-7.13,3.41-2.12.53-4.78,1.82-5.84,2.88s-3.41,2.2-5.08,2.58c-1.74.38-4.48,1.74-6.07,3.03-1.67,1.29-4.48,2.73-6.3,3.19s-4.55,1.82-6.07,3.03c-1.52,1.14-3.87,2.35-5.23,2.66s-3.41,1.29-4.55,2.2c-2.73,2.35-6.6,4.25-8.42,4.25-.83,0-2.73,1.06-4.17,2.35-1.52,1.29-3.94,2.66-5.54,3.11-1.59.38-3.87,1.52-5.16,2.5-1.21.91-3.72,2.43-5.46,3.26-1.74.91-4.4,2.5-5.99,3.57-1.52,1.06-3.41,1.9-4.17,1.9s-2.88,1.37-4.78,2.96c-1.9,1.67-4.55,3.19-5.92,3.49s-3.34,1.37-4.4,2.28c-1.06.99-3.79,2.66-6.07,3.72-4.48,2.2-11.38,6.22-14.41,8.65-1.06.83-3.26,2.05-4.93,2.73-1.67.76-3.87,2.12-4.93,3.03-1.06.99-3.11,2.43-4.55,3.11-1.44.76-3.34,1.97-4.17,2.73s-2.88,1.97-4.55,2.66-4.25,2.28-5.84,3.64c-3.57,3.03-11.46,8.04-12.67,8.04-.53,0-1.9.99-2.96,2.12-2.12,2.12-10.77,8.12-15.02,10.24-1.29.68-2.81,1.74-3.34,2.43-.61.76-2.81,2.43-4.93,3.87-2.05,1.44-5.69,4.1-7.97,5.99-2.28,1.97-5.16,4.02-6.45,4.7-1.21.68-3.72,2.43-5.39,3.94-1.74,1.52-4.78,3.87-6.68,5.31-1.97,1.44-5.99,4.78-9.03,7.43-2.96,2.73-6.45,5.46-7.74,6.07-3.03,1.59-7.89,5.84-23.37,20.18-7.06,6.68-15.48,14.11-18.66,16.61-13.96,11-49.16,45.82-61.07,60.54-3.64,4.48-10.24,11.91-20.48,23.06-9.18,10.09-12.97,14.64-18.21,22-1.29,1.67-4.02,5.16-6.07,7.74-3.57,4.25-6.68,8.27-10.85,14.26-.99,1.29-3.94,5.39-6.75,9.18-2.73,3.72-5.61,7.81-6.45,9.1-.83,1.21-2.81,4.17-4.48,6.45-6.6,9.03-21.32,30.88-24.28,35.96-1.06,1.82-3.79,6.14-6.14,9.63s-5.16,8.04-6.22,10.17c-1.06,2.05-2.58,4.48-3.49,5.23-.91.83-1.59,1.82-1.59,2.35,0,.46-1.44,3.11-3.19,5.92-6.22,9.63-7.36,11.61-8.8,15.02-.83,1.82-2.05,3.87-2.73,4.48-.76.53-2.2,2.81-3.26,4.86-1.06,2.12-2.73,4.93-3.72,6.22s-1.82,2.66-1.82,3.11c0,.38-.91,1.9-1.97,3.34s-2.66,4.1-3.57,5.99c-.83,1.9-2.66,5.08-4.1,7.13-1.37,1.97-2.5,4.32-2.5,5.08s-.99,2.58-2.28,3.94c-1.21,1.44-2.88,4.17-3.72,6.07-.83,1.97-2.2,4.48-3.03,5.61-1.74,2.43-4.25,6.83-7.51,13.5-1.29,2.5-2.96,5.46-3.79,6.52-.91,1.06-2.2,3.49-2.88,5.31s-1.97,4.02-2.73,4.93-2.12,3.41-2.96,5.69-2.28,4.86-3.11,5.77-2.73,4.02-4.17,6.83c-5.77,11.38-6.52,12.75-8.19,14.95-.91,1.29-2.12,3.64-2.58,5.16-.53,1.52-1.59,3.64-2.43,4.63-.76,1.06-2.43,4.1-3.64,6.83s-2.58,5.16-2.96,5.39c-.46.3-1.52,2.28-2.35,4.55-.83,2.2-2.35,5.31-3.41,6.83-.99,1.52-2.28,4.1-2.81,5.61-.46,1.52-1.67,3.94-2.73,5.31-.99,1.37-2.43,4.1-3.03,6.07-.68,1.97-2.05,4.78-2.96,6.22s-2.35,4.17-3.03,6.07c-.76,1.9-2.28,4.93-3.41,6.83s-2.35,4.4-2.66,5.61-1.29,3.41-2.28,4.86c-.99,1.37-2.43,4.48-3.34,6.75-.83,2.35-2.35,5.61-3.41,7.36-.99,1.67-2.28,5.08-2.96,7.59-.61,2.43-1.82,5.16-2.66,6.07s-1.9,3.41-2.35,5.54c-.53,2.2-1.67,5.16-2.66,6.6-2.96,4.32-3.49,5.61-4.17,10.09-.46,2.5-1.37,4.93-2.28,5.92s-2.28,4.25-3.03,7.36-2.28,6.9-3.26,8.42c-.99,1.44-2.28,4.86-2.73,7.51-.53,2.66-1.74,6.37-2.73,8.27s-2.2,5.61-2.66,8.19-1.97,6.98-3.34,9.86c-1.44,3.11-2.88,7.74-3.49,11.23-.53,3.34-1.67,7.28-2.73,9.03-1.14,1.97-2.12,5.23-2.58,8.88-.46,3.87-1.52,7.28-2.96,10.17-1.52,2.96-2.66,6.83-3.49,11.91-.68,4.63-1.82,8.57-2.81,10.17-1.06,1.74-1.97,5.16-2.58,10.24-.68,5.23-1.67,8.95-3.19,12.21-1.67,3.34-2.5,6.75-3.19,12.44-.68,5.54-1.52,8.88-2.81,11.38s-2.12,5.54-2.5,10.01c-.91,8.72-1.44,11.15-3.49,15.32-1.21,2.35-2.05,6.07-2.66,11-1.14,10.39-1.9,14.19-3.72,17.6-.91,1.82-1.52,4.55-1.52,6.68,0,5.84-2.05,16.92-4.02,21.85-1.37,3.34-2.2,7.81-3.11,16.99-.99,9.41-1.74,13.43-3.11,16.84-1.29,2.96-1.9,5.92-1.9,8.8,0,6.83-1.97,19.04-4.1,25.57-1.14,3.41-1.97,7.74-1.97,10.09,0,7.74-2.35,25.34-3.94,29.59-.91,2.5-1.52,5.84-1.44,8.12.08,4.93-1.97,27.54-2.96,31.79-.38,1.74-1.21,4.63-1.82,6.3-.68,2.05-1.37,9.33-1.97,20.48-.99,20.64-1.74,28.3-3.72,36.41-1.14,4.63-1.67,11.23-2.28,29.13-.91,24.96-1.59,33.53-3.87,47.04-.99,6.3-1.52,14.72-1.82,29.97-.91,40.97-2.05,75.26-3.19,94.07-2.28,39.75-2.96,84.97-1.9,131.55.46,24.05,1.21,46.96,1.59,50.9.83,8.72,1.97,39.53,3.03,84.59.53,22.91,1.14,35.43,1.97,39.98,2.35,13.5,3.34,24.28,4.17,45.37.68,17.15,1.14,22.61,2.28,26.48,1.67,5.46,2.58,13.12,3.72,31.18.53,8.5,1.29,14.19,2.35,17.45,1.74,5.77,3.41,16.84,4.17,28.07.3,4.7,1.06,9.41,1.9,11.53.91,2.28,1.97,9.26,2.96,18.59s2.12,16.69,3.03,19.42c.83,2.43,2.05,9.26,2.73,15.17,1.52,14.34,2.2,18.51,3.57,22.15.61,1.67,1.74,8.65,2.43,15.55.76,7.43,1.97,15.17,3.11,18.97,2.12,7.43,4.1,20.26,4.1,27.08,0,2.96.61,6.22,1.59,8.65.99,2.73,1.97,8.65,3.03,18.44.83,8.12,2.12,16.46,2.96,19.04,1.74,5.31,3.79,20.26,3.79,27.54,0,3.41.61,6.83,1.9,10.39,1.44,4.02,2.12,8.5,3.03,19.72.83,9.86,1.74,16.01,2.81,19.35.91,2.73,2.2,8.35,2.81,12.52l1.21,7.59,1729.33.23c951.11.08,1730.39,0,1731.75-.23,1.74-.3,2.28-.76,1.97-1.52-.68-1.9,1.29-3.41,4.25-3.41,5.01,0,5.69-1.14,6.15-9.63.61-11.83-.38-28.98-1.9-32.47-.99-2.43-1.29-5.99-1.44-17.83-.15-8.12-.83-26.78-1.52-41.35-1.14-23.14-1.52-27.39-3.11-33-2.5-8.95-3.26-14.95-3.87-30.73-.46-11.15-.83-14.64-2.28-19.04-1.29-3.94-2.05-9.41-2.96-20.86-.91-11.68-1.67-16.99-3.11-21.55-1.21-4.02-2.35-10.85-3.34-20.1-.99-9.71-1.9-15.1-2.88-17.45-.99-2.28-1.9-7.28-2.66-14.87-.83-8.35-1.59-12.29-2.73-14.57-1.97-3.87-2.81-7.74-3.79-17.45-.53-5.16-1.37-8.8-2.43-11-1.06-1.97-2.2-6.75-3.03-12.52s-1.9-10.17-2.81-11.76c-1.74-2.88-2.88-7.51-3.57-14.19-.3-2.88-1.29-6.45-2.43-8.72-1.21-2.43-2.35-6.45-2.96-11.15-.83-5.69-1.67-8.57-3.72-12.44-1.97-3.72-2.66-5.92-2.66-8.57s-.68-4.86-2.2-7.74c-1.37-2.58-2.58-6.45-3.11-10.17-.61-4.1-1.74-7.51-3.41-10.62-1.59-2.81-2.73-6.22-3.03-8.95-.38-3.11-1.14-5.16-2.5-6.75s-2.2-3.94-2.88-8.04c-.61-3.19-1.67-6.68-2.43-7.74-2.43-3.26-3.19-5.16-4.02-9.63-.46-2.43-1.59-5.77-2.58-7.51-.99-1.67-2.35-5.31-2.96-8.12-.68-2.81-2.05-6.37-3.03-7.89-1.06-1.59-2.43-5.08-3.11-7.74-.68-2.73-2.05-5.84-3.03-7.06-.99-1.14-1.97-3.49-2.28-5.23-.3-1.82-2.05-6.3-3.87-10.01-1.82-3.79-3.34-7.43-3.34-8.12s-.83-2.35-1.9-3.79c-.99-1.37-2.43-4.4-3.03-6.68-.68-2.28-2.2-5.39-3.41-6.9s-2.43-4.17-2.73-5.99c-.3-1.74-1.44-4.4-2.58-5.84s-2.35-3.87-2.66-5.39c-.46-2.5-3.03-8.27-8.19-18.13-.83-1.67-2.35-4.78-3.34-6.83-.99-2.12-2.12-4.32-2.5-4.93-.46-.61-2.28-4.1-4.17-7.74-1.82-3.57-3.72-6.75-4.1-6.98-.38-.3-.91-1.52-1.21-2.73-.3-1.29-1.67-3.64-3.03-5.31s-2.96-4.32-3.41-5.92c-.53-1.52-1.74-3.64-2.73-4.7s-2.28-3.34-2.88-5.08-2.35-5.01-3.79-7.21c-1.52-2.2-2.73-4.4-2.73-4.86s-.99-2.28-2.28-3.94c-1.21-1.74-2.28-3.49-2.28-3.87s-1.21-2.5-2.73-4.7c-1.52-2.28-3.57-5.61-4.63-7.51-.99-1.9-3.03-5.16-4.48-7.21-1.44-2.12-3.87-5.84-5.39-8.35-1.44-2.5-3.49-5.54-4.55-6.83-1.06-1.21-3.95-5.39-6.37-9.1-2.5-3.79-6.37-9.41-8.65-12.52s-4.7-6.75-5.39-7.97c-.68-1.29-2.12-3.34-3.11-4.55-4.4-5.46-11.53-14.72-13.73-17.83-1.37-1.9-3.72-5.16-5.31-7.28-1.52-2.2-7.74-9.48-13.81-16.31-6.07-6.75-12.21-13.96-13.73-15.86-6.07-7.97-12.06-14.49-37.86-40.44-26.48-26.78-42.94-42.26-48.93-46.2-1.67-1.06-8.19-6.52-14.57-12.06-14.72-13.05-17.15-15.02-22.23-18.28-2.35-1.44-7.36-5.39-11.15-8.65-7.43-6.45-11.46-9.41-16.46-12.44-3.57-2.12-6.22-4.1-11.83-8.88-2.05-1.74-4.4-3.34-5.31-3.64-2.35-.76-11.46-7.21-13.12-9.26-.76-.99-1.82-1.74-2.35-1.74-1.44,0-11.15-5.99-14.11-8.72-1.44-1.37-4.17-3.19-6.07-4.1-4.4-2.05-10.92-6.22-13.5-8.57-1.14-1.06-3.19-2.28-4.55-2.73s-3.41-1.59-4.55-2.43c-4.1-3.19-12.44-8.19-14.41-8.72-1.14-.23-3.26-1.59-4.7-3.03-1.44-1.37-3.49-2.73-4.55-3.03s-3.57-1.67-5.69-3.03c-2.05-1.37-4.55-2.73-5.54-2.96-.91-.3-2.66-1.37-3.87-2.43-1.21-.99-3.72-2.35-5.46-3.03-1.82-.61-4.17-1.9-5.23-2.96-1.06-.99-3.41-2.2-5.23-2.66-1.9-.53-4.78-2.05-6.45-3.49s-3.79-2.58-4.78-2.58c-2.28,0-4.4-1.14-7.66-3.87-1.52-1.37-3.34-2.2-4.7-2.2-1.44,0-3.34-.99-5.69-3.03-2.66-2.28-4.17-3.03-6.15-3.03-1.82,0-3.34-.68-5.39-2.58-1.97-1.67-4.02-2.66-6.22-3.03-2.28-.38-4.32-1.37-6.3-3.11-1.59-1.44-3.72-2.66-4.7-2.66-2.66,0-6.37-1.44-6.83-2.73-.53-1.37-5.01-3.34-7.51-3.34-.99,0-3.34-1.21-5.16-2.66s-3.87-2.66-4.48-2.66c-2.81,0-7.06-1.82-9.48-3.87-2.05-1.82-3.57-2.43-6.98-2.73-3.57-.38-4.93-.91-7.28-2.96-1.82-1.67-3.57-2.58-5.01-2.58-2.96,0-5.84-1.14-8.42-3.34-1.21-.99-4.1-2.12-6.68-2.66-2.5-.46-5.99-1.9-7.81-3.11-2.2-1.44-4.78-2.35-7.51-2.73-4.78-.53-6.37-1.29-9.18-3.79-1.52-1.52-2.88-1.9-7.43-2.12-4.25-.23-6.07-.68-7.59-1.9-4.25-3.49-5.31-3.87-9.94-4.25-6.22-.46-7.51-.91-10.01-3.26-1.74-1.59-3.03-1.97-7.97-2.35-4.63-.38-6.75-.91-9.56-2.58-2.5-1.44-5.77-2.5-10.62-3.26-7.66-1.21-12.82-2.81-14.19-4.55-.68-.68-2.5-1.06-5.84-1.06-5.99,0-13.05-1.74-17.37-4.25-2.05-1.21-4.25-1.82-6.6-1.82-6.3,0-17.98-2.28-21.85-4.17-2.81-1.44-4.86-1.9-8.57-1.9-7.21,0-19.88-2.2-24.88-4.25-3.26-1.37-5.69-1.82-9.86-1.74-5.99,0-23.21-1.21-32.85-2.35-3.34-.38-9.48-1.06-13.66-1.44-4.17-.46-11.3-1.21-15.93-1.67-9.48-.99-15.4-.61-29.51,1.97-5.46.99-14.03,2.2-19.04,2.66-15.1,1.37-16.31,1.52-19.19,3.03-2.73,1.44-18.06,4.55-22.23,4.55-1.14,0-3.72.83-5.77,1.9-2.35,1.14-6.52,2.28-11.83,3.03-6.37.91-9.18,1.74-12.44,3.57-3.57,1.97-5.16,2.43-9.94,2.58-4.63.23-6.22.61-8.5,2.2-2.58,1.74-11,4.1-14.95,4.17-.99,0-3.87,1.14-6.52,2.58-3.03,1.59-6.52,2.73-9.33,3.03-2.81.38-5.46,1.29-7.21,2.43-1.74,1.21-5.08,2.35-8.72,2.96-3.34.61-6.07,1.06-6.15,1.14-.08,0-1.21.99-2.5,2.2-2.05,1.82-3.19,2.2-7.74,2.5-4.63.38-5.54.68-7.81,2.88-2.12,2.12-3.26,2.5-7.89,3.03-4.4.46-5.84.99-7.97,2.88-1.74,1.52-4.25,2.66-7.66,3.41-2.81.68-5.84,1.9-6.75,2.73-2.05,1.9-5.23,3.11-8.27,3.11-1.59,0-3.11.76-4.86,2.43-2.05,1.97-3.34,2.5-7.59,3.03-3.72.46-5.54,1.06-6.98,2.43-2.66,2.43-4.4,3.19-8.65,3.79-2.43.38-4.48,1.29-6.22,2.88-1.9,1.59-3.72,2.43-6.75,2.81-3.19.46-4.63,1.06-6.3,2.88-1.74,1.82-2.96,2.35-6.6,2.81-3.64.38-5.01.99-7.36,3.11-1.9,1.67-4.02,2.81-5.99,3.11-1.74.3-4.17,1.29-5.54,2.28-1.37.91-3.87,2.43-5.69,3.26s-4.32,2.43-5.54,3.41c-1.14.99-3.19,2.05-4.4,2.35-1.21.23-2.81,1.14-3.57,2.05-1.9,2.05-11.23,8.04-15.17,9.71-1.67.76-3.64,2.2-4.32,3.26-.76,1.21-2.5,2.35-4.25,2.81-1.59.38-4.17,1.82-5.77,3.03-1.59,1.29-4.32,2.96-5.99,3.72-1.74.76-3.57,1.9-4.17,2.58-.53.68-2.35,1.67-4.02,2.12-1.74.46-4.1,1.9-5.46,3.34-1.74,1.82-3.19,2.58-5.69,2.88s-3.94,1.06-5.84,3.03c-1.97,1.97-3.34,2.73-6.07,3.03-2.58.23-4.1.99-6.07,2.88-2.12,2.05-3.34,2.58-7.21,3.03-3.41.38-5.16,1.06-6.6,2.43-2.73,2.58-5.54,3.57-10.32,3.57-3.11,0-4.7.46-6.98,1.97-1.59,1.14-3.94,2.35-5.23,2.73-6.52,2.05-56.97,1.97-64.11-.15-1.52-.38-3.87-1.59-5.31-2.66-2.05-1.52-3.49-1.9-6.98-1.9-4.48,0-7.81-1.14-9.63-3.34-.53-.61-2.73-1.67-4.93-2.28-2.2-.68-4.78-2.05-5.77-3.19-1.06-1.06-3.34-2.66-5.16-3.41-4.1-1.74-24.12-21.62-29.06-28.75-4.86-7.06-11.15-19.88-12.44-25.19-.53-2.43-1.52-5.23-2.12-6.14-1.44-2.28-1.82-4.48-2.81-16.46-.46-5.61-1.37-12.14-2.05-14.41-1.59-5.54-1.59-18.97.08-26.93.68-3.34,1.59-10.92,1.97-16.92.76-11.08,1.59-15.86,3.41-18.66.61-.91,1.44-3.34,1.9-5.39.46-2.12,1.97-5.69,3.34-7.97s2.96-5.39,3.41-6.83,2.05-4.17,3.49-5.99,2.66-3.57,2.66-3.87c0-.53,8.5-11.91,14.79-19.72,14.26-17.75,24.58-34.52,26.32-42.86.46-2.05,1.59-5.23,2.66-6.98,1.29-2.28,2.2-5.61,2.96-11.38.68-4.48,1.97-10.62,2.96-13.5,3.11-9.18,3.72-16.99,3.64-43.62,0-27.24-.91-39.37-3.11-43.77-1.74-3.41-3.94-14.95-3.94-20.33,0-2.12-.53-4.86-1.21-6.07-.68-1.29-1.74-3.11-2.28-4.17s-1.37-4.78-1.82-8.35-1.29-7.21-1.74-8.04c-.53-.91-1.67-3.03-2.58-4.7-.99-1.67-1.9-5.08-2.2-7.51-.3-2.88-1.14-5.39-2.43-7.28-1.06-1.59-2.35-5.16-2.88-8.04s-2.2-7.51-3.72-10.32c-1.52-2.88-2.66-6.14-2.66-7.59,0-1.37-1.06-4.48-2.28-6.83-1.29-2.43-2.81-6.68-3.41-9.56-.53-2.88-1.9-6.68-2.96-8.42-1.06-1.82-2.43-5.84-3.19-8.95-.68-3.11-2.05-7.06-2.96-8.72-.99-1.67-2.12-5.08-2.58-7.51-.46-2.5-1.82-5.99-3.03-7.97-1.29-1.9-2.5-5.01-2.73-6.9-.99-7.51-1.29-8.42-3.11-10.62-1.44-1.67-2.12-3.72-2.66-7.74-.61-4.1-1.44-6.68-3.34-9.79-1.82-2.96-2.88-5.84-3.34-9.18-.46-3.03-1.37-5.92-2.58-7.66-1.06-1.52-2.28-4.86-2.66-7.36-.46-2.58-1.9-6.45-3.11-8.65-1.29-2.2-2.73-5.84-3.19-8.12s-1.67-5.46-2.66-7.21c-.99-1.67-2.28-4.7-2.88-6.68-.61-1.9-2.12-5.16-3.34-7.13-1.29-1.97-2.73-5.08-3.19-6.98-.53-1.9-1.52-4.1-2.35-5.01-.76-.83-1.97-3.34-2.66-5.61-.68-2.2-2.2-5.31-3.34-6.75-1.21-1.52-2.5-4.02-2.96-5.61-.38-1.59-1.67-4.1-2.73-5.54-1.06-1.37-2.43-3.94-3.03-5.61s-2.05-4.48-3.26-6.3c-1.21-1.74-2.96-4.7-3.87-6.6-3.94-7.97-5.69-11.23-8.5-15.7-1.59-2.58-2.96-4.86-2.96-5.08,0-.15-1.21-2.05-2.66-4.25s-2.66-4.32-2.66-4.78-.83-1.67-1.82-2.73c-.99-1.14-3.57-4.86-5.69-8.42-2.05-3.57-4.7-7.81-5.92-9.41-1.14-1.67-3.87-5.77-6.07-9.1-2.12-3.41-4.86-7.28-6.07-8.72-2.5-3.11-6.75-9.41-8.35-12.59-.68-1.21-2.28-3.49-3.57-5.01-2.35-2.73-4.32-5.31-11.83-15.86-2.28-3.26-5.16-7.06-6.3-8.42-7.21-8.72-14.19-17.52-14.19-18.13,0-.68-4.4-6.07-14.41-17.6-3.94-4.55-9.03-10.62-11.23-13.35-11.3-14.41-20.79-24.43-61.45-65.24-42.26-42.41-59.63-59.33-64.26-62.74-1.67-1.29-3.57-2.88-4.17-3.64-.61-.68-3.26-2.73-5.84-4.55-2.66-1.74-8.12-6.22-12.14-9.94-6.9-6.22-12.97-11.15-22.38-17.9-4.7-3.41-15.48-11.53-18.44-13.88-1.21-.99-3.49-2.43-4.93-3.19s-3.64-2.2-4.93-3.19c-6.07-4.86-9.33-7.21-12.14-8.57-2.88-1.44-6.6-3.87-13.66-9.03-1.67-1.21-3.79-2.43-4.78-2.73-.91-.23-2.66-1.29-3.79-2.28-1.14-.91-3.64-2.5-5.46-3.49-1.9-.91-4.1-2.28-4.93-3.03s-3.11-1.9-4.93-2.58c-1.9-.68-4.63-2.2-6.15-3.34-1.44-1.21-4.02-2.58-5.61-3.03-1.59-.38-3.79-1.67-4.93-2.73-1.14-1.14-3.57-2.35-5.39-2.73-1.82-.46-4.4-1.82-6.07-3.26-1.74-1.67-3.94-2.73-5.99-3.11-1.9-.3-4.25-1.44-5.77-2.81-1.59-1.44-4.02-2.58-6.15-2.96-2.35-.46-4.4-1.52-5.99-3.03-1.67-1.59-3.64-2.58-6.07-3.03s-4.48-1.44-5.99-2.96c-1.29-1.29-3.11-2.28-3.94-2.28-2.58,0-5.54-1.37-8.35-3.79-1.44-1.29-3.34-2.28-4.4-2.28-2.5,0-5.77-1.29-7.66-3.11-.91-.83-3.41-1.97-5.61-2.58s-5.23-1.9-6.75-3.03c-1.59-1.06-5.08-2.58-7.81-3.34-2.81-.76-6.15-2.28-7.43-3.34-1.59-1.37-3.26-2.05-5.01-2.05-2.88,0-6.3-1.37-9.94-4.1-1.37-.99-4.1-1.97-6.15-2.28-2.28-.3-4.78-1.29-6.68-2.66-2.05-1.52-4.4-2.43-7.13-2.81-4.63-.53-6.37-1.29-8.88-3.49-.91-.83-3.87-1.97-6.6-2.58-2.73-.53-6.9-2.05-9.26-3.34-2.35-1.21-5.23-2.28-6.37-2.28-2.96,0-6.83-1.44-9.71-3.57-1.59-1.21-4.17-2.12-7.43-2.58-5.08-.68-6.75-1.37-10.32-3.94-1.29-.99-3.94-1.67-7.66-2.05-4.55-.46-6.45-1.06-9.33-2.96-1.97-1.29-4.48-2.35-5.54-2.35-3.57,0-11.46-2.28-13.66-3.87-1.37-.99-4.1-1.82-7.51-2.2-7.43-.99-9.03-1.44-13.81-3.87-3.03-1.59-5.23-2.2-8.19-2.2-4.17,0-10.47-1.82-15.7-4.55-2.12-1.06-4.4-1.52-8.04-1.52-5.99,0-14.03-1.74-18.44-3.94-2.05-1.06-4.78-1.59-8.42-1.74-9.56-.38-28.6-2.73-35.2-4.32-6.3-1.52-8.57-1.59-65.7-1.74-32.55-.08-97.56.08-144.52.38h0l.03.03Z"/>
  <path class="cls-4" d="m4061.92,2436.96c-1.06.15-2.35,1.21-3.03,2.58-3.64,6.6-7.36,10.92-24.05,27.99-10.01,10.24-19.35,20.1-20.71,22-3.26,4.32-11.83,17.37-18.28,27.69-11.53,18.44-12.82,20.26-28.37,41.12-3.64,4.86-8.65,11.76-11.08,15.32s-7.36,9.86-10.85,14.03-8.88,10.62-11.91,14.41c-11.61,14.41-60.84,66.08-77.53,81.48-4.78,4.4-16.46,15.32-25.95,24.28-9.48,8.88-20.03,18.44-23.59,21.24-3.49,2.73-10.17,8.27-14.72,12.29-4.63,4.02-11.38,9.41-15.1,11.99-3.64,2.5-9.56,6.98-13.05,9.86-3.49,2.96-9.26,7.28-12.82,9.71-3.49,2.43-7.66,5.46-9.18,6.75-3.34,2.88-11.08,8.04-13.81,9.18-1.14.46-3.19,1.9-4.55,3.11-3.41,2.88-12.82,9.26-13.73,9.26-.46,0-2.05.99-3.57,2.2-3.72,2.88-12.9,8.04-29.28,16.39-7.51,3.79-14.34,7.28-15.17,7.74-5.23,2.81-17.9,8.57-20.41,9.26-1.59.38-4.25,1.67-5.77,2.73-1.59,1.14-4.63,2.43-6.83,3.03s-5.23,1.9-6.75,2.96c-1.52.99-4.1,2.12-5.77,2.43s-5.23,1.82-7.97,3.41c-2.73,1.52-6.68,3.34-8.72,3.94-2.12.61-5.16,1.97-6.75,3.11-2.05,1.37-3.95,1.97-6.07,1.97-2.35,0-4.02.61-6.45,2.35-2.05,1.59-5.01,2.81-8.27,3.49-2.73.53-6.6,2.05-8.5,3.26-2.5,1.59-4.48,2.28-6.75,2.28-3.26,0-5.61.91-10.32,4.1-1.67,1.14-4.32,2.05-7.21,2.35-3.34.38-5.23,1.14-7.28,2.73-2.66,2.12-3.64,2.43-11.08,3.34-1.97.23-4.32,1.06-5.31,1.82-3.11,2.43-4.93,3.11-10.55,3.87-3.87.53-6.3,1.37-8.04,2.73s-4.32,2.2-8.72,2.88c-4.48.76-7.36,1.74-10.09,3.41-2.81,1.74-5.31,2.5-9.26,3.03-4.17.53-6.07,1.14-7.89,2.66-1.29,1.06-2.73,1.97-3.19,2.05-.53.08-3.03.15-5.54.3-3.64.15-5.69.76-9.1,2.66-3.11,1.67-6.45,2.73-11,3.41-4.78.76-7.51,1.67-10.17,3.34-2.12,1.37-4.7,2.35-6.15,2.35-4.55,0-10.17,1.44-13.12,3.49-2.35,1.52-4.55,2.12-9.71,2.66-4.86.53-7.89,1.37-11.23,3.03-3.26,1.59-6.45,2.43-11.3,3.03-5.46.61-7.51,1.14-10.24,2.96-1.82,1.29-3.72,2.28-4.17,2.28s-3.79.38-7.51.76c-5.16.53-7.51,1.14-10.7,2.96-3.26,1.9-4.93,2.35-8.65,2.35-5.92,0-11.76,1.21-16.08,3.41-4.17,2.12-5.69,2.43-16.69,3.49-4.78.46-10.39,1.44-12.52,2.2-6.07,2.28-11.91,2.96-27.31,3.34-13.66.3-14.49.46-15.7,1.97-1.74,2.2-1.74,5.46.08,7.66,1.29,1.59,2.05,1.82,5.77,1.67,3.19-.15,6.07.38,10.92,2.05,7.81,2.66,14.34,3.79,22.38,3.79,5.23,0,6.68.3,12.06,2.73,4.4,2.05,7.43,2.88,11.08,3.11,6.9.46,7.97.76,10.47,2.73,1.37,1.21,3.95,2.12,7.28,2.66,3.49.53,6.52,1.67,9.71,3.64,3.41,2.05,5.84,2.96,9.33,3.34,3.19.3,5.54,1.14,7.51,2.5,1.59,1.06,4.7,2.35,6.98,2.81,2.2.46,5.54,1.82,7.43,3.03,1.82,1.29,5.08,2.58,7.21,3.03,2.12.38,5.16,1.59,6.75,2.58,1.59,1.06,4.48,2.43,6.37,3.03,1.97.68,5.54,2.43,7.97,3.87s5.08,2.66,5.84,2.66c.83,0,3.64,1.14,6.15,2.58,2.58,1.44,6.15,2.96,8.04,3.49s4.78,1.9,6.37,3.11c1.67,1.21,3.87,2.2,4.86,2.2,1.97,0,4.4,1.06,6.6,3.03.83.76,3.34,1.9,5.54,2.66,2.2.68,5.01,2.12,6.22,3.19,1.29,1.06,3.87,2.35,5.84,2.96s4.25,1.74,5.16,2.58c.83.76,3.26,2.2,5.31,3.11,2.12.91,4.78,2.35,6.07,3.26,1.21.83,5.31,3.19,9.1,5.08,10.17,5.16,21.55,11.23,24.58,13.2,1.52.91,3.49,1.9,4.4,2.2.83.3,3.11,1.67,4.93,3.11,1.74,1.44,3.64,2.66,4.1,2.66.38,0,2.81,1.37,5.39,2.96,2.5,1.67,7.81,4.78,11.68,6.9,3.95,2.2,8.72,5.01,10.7,6.3,1.97,1.37,7.06,4.63,11.3,7.36,4.32,2.73,9.86,6.3,12.52,8.04,2.58,1.67,7.97,5.01,11.99,7.43,3.95,2.35,7.43,4.63,7.66,5.08.3.38,4.32,3.26,8.95,6.37,21.09,14.11,26.33,17.68,31.1,21.47,2.81,2.28,7.74,5.77,10.92,7.89,3.26,2.12,8.95,6.3,12.75,9.26,3.72,3.03,8.72,6.83,11,8.57s7.97,6.52,12.52,10.55c4.63,4.02,12.75,10.7,18.21,14.95,14.19,11,24.28,20.26,50.98,46.58,40.06,39.68,57.96,58.79,70.02,74.95,3.11,4.17,8.57,10.77,12.14,14.72,9.41,10.39,28.45,34.9,32.32,41.5,1.14,2.05,3.57,5.39,5.39,7.36,1.74,2.05,4.17,5.23,5.31,7.06,1.14,1.9,3.95,5.84,6.07,8.88,2.2,3.03,4.93,7.13,6.07,9.1,1.21,1.97,4.17,6.52,6.68,10.09s5.39,7.97,6.45,9.71c1.06,1.82,3.57,5.69,5.54,8.72,1.97,2.96,4.55,7.21,5.69,9.33,1.06,2.2,2.96,5.16,4.17,6.6s2.81,3.87,3.49,5.31c.68,1.52,2.66,5.08,4.32,8.04,1.74,2.88,4.25,7.51,5.61,10.24s3.26,5.92,4.25,7.06c.99,1.21,2.05,3.11,2.28,4.17.3,1.14,1.21,3.03,2.12,4.25,1.74,2.43,3.95,6.6,12.52,23.75,3.11,6.15,6.3,12.21,7.13,13.35.76,1.14,1.74,3.34,2.2,4.86.38,1.52,1.52,4.02,2.5,5.54.99,1.59,2.66,4.93,3.72,7.43s2.58,5.69,3.41,7.06c.76,1.44,1.82,3.94,2.35,5.61s1.59,3.94,2.43,5.08c.76,1.14,1.97,3.87,2.58,6.07.68,2.2,2.35,6.07,3.79,8.65,1.44,2.5,2.58,5.31,2.58,6.15,0,.91,1.06,3.57,2.28,5.99,1.29,2.35,2.66,5.92,3.11,7.81s1.9,5.69,3.26,8.42,2.88,6.6,3.41,8.65,1.74,5.16,2.66,6.83c.99,1.74,2.2,4.78,2.66,6.83.53,2.05,2.12,5.99,3.57,8.8,1.74,3.49,2.58,6.07,2.58,8.35s.68,4.55,2.35,7.43c1.21,2.2,2.96,6.83,3.79,10.17s2.43,7.43,3.49,9.03c1.44,2.28,2.12,4.48,2.5,8.5.3,3.49,1.29,6.98,2.5,9.71,1.14,2.28,2.58,7.06,3.26,10.55.61,3.57,2.12,8.5,3.34,11,1.29,2.66,2.35,6.6,2.66,9.48s1.44,7.13,2.81,10.24c1.67,3.72,2.5,7.21,2.96,11.53.68,8.12,1.21,10.32,3.57,15.78,1.44,3.34,2.05,6.6,2.5,12.52.38,5.92,1.14,9.63,2.88,14.57,1.9,5.16,2.58,8.72,3.11,16.08.46,6.07,1.29,11.08,2.28,13.88,2.35,6.52,2.96,9.79,3.03,16.69,0,6.75,1.52,15.78,3.34,20.1s2.73,9.18,3.49,19.42c.61,7.66,1.14,10.24,2.73,13.73,1.59,3.41,2.12,5.84,2.5,12.59.38,6.37,1.14,10.17,3.03,15.93,1.37,4.17,2.66,8.42,2.96,9.48.68,2.43,4.55,4.48,5.54,2.96.83-1.29.91-1486.94.08-1488-.3-.46-1.37-.68-2.28-.53h0v.02Z"/>
  <path class="cls-2" d="m155.83,1281.01v400.59h146.88v-339.26h16.65c21.61,0,57.16-1.45,78.31-3.18,42.1-3.54,64.64-9.07,94.49-23.13,56.23-26.67,96.64-74.75,111.7-133.07,6.55-25.04,8.05-38.92,7.95-71.48,0-27.39-1.03-38.46-5.05-58.6-14.78-72.57-60.71-128.81-123.96-151.85-19.27-6.99-46.13-12.52-77.46-15.88-34.06-3.63-42.48-3.81-146.79-4.26l-102.72-.46v400.59h0Zm223.59-249.74c33.96,3,52.95,9.35,67.45,22.4,16.37,14.69,23.58,32.75,23.58,59.14,0,24.94-6.08,41.63-20.67,56.51-19.27,19.5-41.16,24.22-112.64,24.22h-34.43v-163.28h33.02c18.06,0,37.8.46,43.69,1h0Z"/>
  <path class="cls-2" d="m947.31,883.02c-.47,1.45-67.08,181.51-148,400.31l-147.07,397.77,75.69.27c41.63.09,75.87,0,76.06-.18.28-.18,14.5-37.28,31.62-82.37l31.06-81.91,156.71-.27,156.61-.18,29.94,82.27,29.94,82.37,76.06.27c65.02.18,75.97,0,75.69-1.08-.19-.73-66.61-180.97-147.63-400.49l-147.35-399.23h-148.38l-.93,2.45h-.02Zm127.23,348.16l50.34,136.07-50.8.27c-27.97.09-73.82.09-101.79,0l-50.9-.27,49.49-132.89c56.23-151.04,52.48-141.33,52.95-140.15.19.55,22.92,62.14,50.71,136.97h0Z"/>
  <path class="cls-2" d="m1550.87,1281.11v400.5h146.88l.19-261.97.28-262.07,164.09,262.07,164,261.97h140.14v-800.99h-145.95l-.19,262.98-.28,262.98-164.28-262.7-164.28-262.79-70.26-.27-70.36-.18v400.5h0l.02-.03Z"/>
  <path class="cls-2" d="m2362.84,955.81v75.29h136.59v650.41h147.81v-650.41l69.98-.18,69.89-.27.28-75.11.19-75.02h-424.74v75.3h0Z"/>
  <path class="cls-2" d="m2956.68,1281.11v400.5h146.88v-339.36l6.74.27,6.65.27,86.26,169.18,86.17,169.18,80.17.27,80.17.18-5.99-11.52c-25.44-49.44-175.6-344.35-175.32-344.52.19-.09,4.12-1.72,8.7-3.63,21.14-8.35,46.78-23.4,64.27-37.55,31.81-25.85,54.27-62.5,64.83-105.77,5.24-21.41,6.46-33.2,6.46-63.95.09-30.3-.56-38.55-4.68-59.33-11.79-58.96-44.16-108.58-89.72-137.79-26.39-16.87-55.39-25.85-101.51-31.39-38.92-4.72-64.08-5.53-170.46-5.53h-89.63v400.49h.01Zm227.34-249.91c22.46,1.81,35.36,4.81,47.06,10.61,10.01,4.99,21.05,14.69,27.51,24.13,11.32,16.51,15.72,39.64,11.97,63.23-2.81,18.05-8.33,29.57-19.09,40-8.89,8.62-19.74,14.06-35.74,17.96-19.83,4.9-30.32,5.8-73.06,6.17l-39.11.46v-163.46h34.9c19.09,0,39.67.46,45.56.91h0Z"/>
  <path class="cls-2" d="m3508.86,891.68c3,6.17,53.7,108.22,112.73,226.96l107.21,215.71v347.25h147.81v-347.06l112.17-226.78,112.08-226.69-76.81-.27c-42.29-.09-77.18,0-77.75.18-.47.18-32.74,64.67-71.57,143.32-53.23,107.86-70.92,142.69-71.57,141.69-.56-.64-32.74-65.13-71.57-143.23l-70.64-142.06-78.78-.09h-78.78l5.42,11.07h.05Z"/>
  <path class="cls-1" d="m648.21,3768.28c-12.99,1.5-22.45,4.72-31.42,10.67-15.62,10.36-26.96,26.89-31.16,45.33-1.34,5.8-1.38,6.63-1.43,16.21-.05,9.38.05,10.46,1.16,15.44,2.36,10.41,6.78,21.14,12.5,29.99,8.34,13.05,24.86,30.98,50.13,54.55,23.21,21.65,30.31,29.74,34.19,39.01,2.14,5.13,2.77,8.75,2.54,14.14s-1.97,9.74-5.8,14.46c-9.73,12.07-26.6,14.66-40.08,6.11-8.93-5.59-17.5-16.32-24.77-30.88l-1.21-2.44-1.43.99c-.76.52-9.02,6.16-18.35,12.48-16.78,11.4-21.2,14.46-21.2,14.76,0,.57,4.69,9.84,7.32,14.5,15.26,26.99,33.75,41.54,59.18,46.68,5.04.99,22.45,1.45,27.9.67,20.13-2.74,35.75-11.34,48.48-26.73,12.85-15.54,18.97-35.18,18.12-58.17-.85-22.17-7.63-38.85-23.74-58.49-5-6.06-12.54-13.73-30.8-31.13-18.3-17.46-23.92-23-32.09-31.6-11.07-11.61-13.66-16.01-14.02-23.88-.23-5.39.53-7.88,3.71-11.81,5.31-6.63,13.08-9.38,21.87-7.82,10.71,1.86,21.24,10.16,31.16,24.5,1.83,2.7,3.35,4.45,3.71,4.3.31-.15,8.52-8.13,18.17-17.77l17.63-17.51-1.25-1.81c-2.32-3.37-13.57-16.16-18.08-20.51-14.28-13.93-28.79-21.5-45.53-23.78-4.69-.62-12.05-.83-15.4-.47h0Z"/>
  <path class="cls-1" d="m1741.3,3810.96v39.37h-24.55l.09,23.16.14,23.21,12.05.1,12.05.15.14,83.66.09,83.66h47.31v-167.32l14.19-.1,14.15-.15v-46.11l-14.15-.15-14.19-.1v-78.74h-47.31v39.37h-.01Z"/>
  <path class="cls-1" d="m2773.69,3810.96v39.37h-24.55l.09,23.16.14,23.21,12.19.15,12.14.1v167.32h47.31l.09-83.66.14-83.66,14.06-.15,14.06-.1v-46.11l-14.15-.15-14.19-.1v-78.74h-47.31v39.37h-.02Z"/>
  <path class="cls-1" d="m2094.36,3919.7v144.58h49.1v-122.26l7.28-.05c3.97-.05,7.32-.05,7.45-.05s3.75-.21,8.04-.42c21.51-1.24,31.33-3.68,43.87-10.93,11.65-6.74,22.18-18.03,28.16-30.2,5.62-11.4,8.39-24.5,8.48-39.68.05-12.28-.94-20.98-3.57-30.72-6.16-22.53-21.16-40.2-40.35-47.5-7.19-2.74-19.46-5.18-29.68-5.96-2.45-.21-5.18-.47-6.03-.62s-17.59-.36-37.14-.52l-35.62-.26v144.58h.01Zm79.67-89.25c6.21,1.03,9.28,2.02,13.03,4.09,5.67,3.21,9.91,9.27,11.52,16.37.76,3.27.85,12.59.18,16.01-1.38,7-5.94,13.52-11.61,16.78-6.34,3.58-12.5,4.45-31.51,4.45h-12.19v-58.59l13.08.1c8.57,0,14.55.31,17.5.78h0Z"/>
  <path class="cls-1" d="m854.42,3845.72c-18.17,2.44-35.17,11.71-48.61,26.63-19.73,21.86-29.55,49.32-29.68,83.14-.09,15.59.85,24.5,3.75,36.47,5.98,24.71,19.95,46.62,39.28,61.59,21.24,16.48,49.32,20.82,73.65,11.45,8.97-3.47,18.7-10.05,27.67-18.76l4.24-4.09.14,11.03.09,11.09h47.31v-213.95h-47.31v11.66c0,6.43-.18,11.66-.36,11.66s-1.07-.83-1.92-1.86c-2.36-2.9-7.81-7.82-12.54-11.45-10.13-7.72-22.36-12.79-35.17-14.66-4.37-.62-15.67-.57-20.53.05h-.01Zm30.17,49.94c7.59,1.4,13.21,3.94,19.73,8.86,6.69,5.08,13.7,14.19,17.41,22.74,1.52,3.58,3.57,11.19,4.37,16.32,1.07,6.63,1.03,20.62,0,27.46-3.93,25.38-19.64,44.09-40.84,48.54-5.13,1.09-16.07,1.03-20.58-.05-10.31-2.59-18.57-7.82-25.93-16.42-7.01-8.24-11.56-18.08-13.88-30.1-.89-4.72-1.03-6.63-.98-16.48,0-10.73.09-11.34,1.38-17.2,2.45-10.67,6.6-19.37,12.81-26.73,7.86-9.38,16.43-14.76,26.83-16.89,4.78-.99,14.64-.99,19.68-.05h0Z"/>
  <path class="cls-1" d="m1122.54,3845.98c-14.5,2.64-27.58,9.74-41.82,22.74l-3.8,3.42-.14-10.88-.09-10.93h-47.31v213.95h47.31l.09-48.07c.05-50.25.09-53.2.53-64.03.58-13.16,1.88-20.57,5.04-29.06,4.47-11.91,12.54-21.71,21.42-25.85,8.12-3.88,20.48-3.88,27.67-.05,6.16,3.27,10.84,8.7,13.79,16.06,2.5,6.32,3.84,14.4,4.47,27.46.18,3.68.36,7.56.45,8.55.05.99.09,27.3.14,58.38l.05,56.62h47.36l-.18-76.82c-.14-84.07-.05-80.87-2.81-91.9-4.24-17.05-11.02-27.71-23.88-37.71-7.05-5.54-15.71-9.59-24.37-11.45-5.31-1.14-18.7-1.4-23.92-.42h0Z"/>
  <path class="cls-1" d="m1351.65,3845.52c-17.14,2.23-33.79,10.83-46.87,24.14l-3.8,3.88-.14-11.19c-.09-8.18-.27-11.29-.67-11.61-.27-.21-10.93-.42-23.61-.42h-23.12v292.17h47.31v-100.5l3.93,3.88c5.22,5.29,13.39,11.61,18.97,14.71,16.07,9.02,34.5,11.55,53.2,7.25,32.32-7.41,60.7-39.27,69.4-77.86,2.68-11.91,3.53-21.24,3.35-35.28-.53-33.88-10.04-60.45-29.28-81.85-13.66-15.23-29.51-24.14-47.93-26.94-4.15-.62-17.18-.88-20.76-.42h.01v.04Zm7.42,49.94c11.16,1.76,20.8,7.67,28.88,17.51,6.69,8.13,10.63,16.94,12.9,28.64,1.34,7.04,1.47,22.95.23,29.99-4.33,24.97-19.86,43.36-40.44,47.97-5.04,1.09-15.44,1.09-20.48-.05-20.26-4.56-35.58-21.92-39.99-45.38-2.32-12.54-1.83-27.82,1.29-39.22,5.62-20.57,21.69-36.37,40.17-39.47,3.88-.62,13.43-.67,17.45,0h-.01Z"/>
  <path class="cls-1" d="m1575.48,3845.72c-29.99,3.21-56.55,22.38-72.58,52.32-6.74,12.54-11.92,30.62-13.21,45.8-.67,7.82-.4,26.94.45,33.36,3.08,22.79,11.02,41.6,24.42,57.76,11.69,14.14,23.97,23,40.04,29.01,5.31,1.97,14.15,4.2,18.88,4.72,1.61.21,3.39.47,4.01.57.62.15,5.04.36,9.82.47,28.34.72,50.88-7,69.4-23.83,5.67-5.13,18.52-21.03,18.52-22.85,0-.26-8.97-5.18-19.91-10.98l-19.86-10.46-3.66,3.47c-9.51,8.96-18.92,14.04-30.44,16.32-4.6.88-6.6.99-14.06.78-5.49-.15-9.95-.57-12.05-1.14-20.89-5.23-34.86-21.08-39.45-44.7l-.62-3.21h153.14l-.27-12.59c-.14-6.89-.36-13.11-.45-13.83-.14-.72-.36-2.7-.53-4.4-1.83-18.96-8.8-39.06-18.92-54.4-2.86-4.35-11.25-14.25-15.22-18.03-12.32-11.55-28.12-19.63-44.63-22.85-9.42-1.81-22.98-2.33-32.81-1.29h0v-.02Zm24,45.84c17.94,3.31,33.56,17.25,39.36,35.12.62,1.86,1.12,3.58,1.12,3.68,0,.15-23.12.26-51.37.26h-51.37l2.32-5.08c7.14-15.54,14.19-23.52,25.84-29.42,3.84-1.92,10.49-4.15,14.59-4.82,4.51-.78,14.69-.62,19.5.26h.01Z"/>
  <path class="cls-1" d="m1928.81,3845.78c-4.86.57-13.93,2.7-18.79,4.35-24.72,8.65-46.42,30.31-57.62,57.45-4.47,10.83-7.81,25.28-8.93,38.34-.76,8.91-.27,25.23.94,33.41,2.59,17.09,8.04,32.07,16.65,45.59,3.93,6.16,14.02,17.92,19.2,22.38,13.79,11.86,30.26,19.17,48.96,21.71,5.45.78,19.91.93,26.96.31,21.2-1.86,39.36-9.63,54.5-23.42,5.67-5.13,18.52-21.03,18.52-22.85,0-.26-8.97-5.18-19.91-10.93l-19.86-10.52-3.66,3.47c-9.51,8.96-18.88,13.99-30.44,16.32-4.6.88-6.6,1.03-14.28.78-7.68-.21-9.6-.47-13.57-1.6-20.18-5.9-33.25-21.18-37.71-44.24l-.62-3.21h153.14l-.27-12.85c-.14-7.67-.53-15.07-.98-18.49-2.68-20.98-8.88-38.59-18.92-53.87-3.04-4.61-11.34-14.4-15.67-18.39-5.58-5.13-10.17-8.49-17.18-12.43-10.98-6.27-22.5-9.95-35.49-11.34-5.36-.57-20-.57-24.95.05h-.01v-.02Zm24.27,45.74c5.76,1.09,9.95,2.54,14.64,5.13,12.63,6.89,22.41,19.27,25.98,32.79l.27,1.19h-102.79l2.32-5.08c4.64-10.05,9.33-17.2,14.19-21.55,5.36-4.72,12.99-9.12,19.37-10.98,7.54-2.28,18.61-2.9,26.02-1.5h0Z"/>
  <path class="cls-1" d="m2367.3,3845.98c-19.46,2.95-36.15,13.05-50.7,30.67-13.03,15.8-21.24,34.86-24.46,56.93-5.09,34.86.89,68.18,16.7,92.63,14.15,21.92,33.65,36.83,54.46,41.65,6.16,1.4,7.99,1.6,15.4,1.86,21.29.72,38.92-6.63,56.24-23.47l4.24-4.09.14,11.03.09,11.09h47.31v-213.95l-23.53.1-23.57.15-.14,11.5c-.05,6.37-.27,11.55-.45,11.55-.23,0-1.07-.83-1.92-1.86-6.43-7.77-19.01-16.84-29.42-21.18-11.92-4.92-26.87-6.63-40.39-4.61h0Zm30.84,49.47c18.7,3.01,34.55,18.29,40.44,39.06,1.97,6.94,2.72,13.11,2.72,22.53s-.76,16.06-2.86,23.42c-4.86,17.41-16.65,31.19-31.47,36.99-9.24,3.58-20.85,4.09-30.58,1.24-18.61-5.33-33.08-23.36-37.23-46.37-1.03-5.59-1.38-18.55-.71-24.81,1.12-10,4.15-19.79,8.57-27.3,4.06-7,11.38-14.71,17.81-18.76,3.62-2.33,11.34-5.33,15.17-5.96,4.1-.67,14.06-.72,18.12-.05h.02Z"/>
  <path class="cls-1" d="m2637.28,3845.93c-14.55,2.59-28.03,9.84-42.13,22.74l-3.79,3.47-.23-10.77-.23-10.77-23.53-.15-23.57-.1v213.95h47.31l.09-48.59c.14-69.32.23-72.58,2.86-83.56,4.73-19.89,15.85-33.51,30.31-36.99,4.42-1.03,11.61-1.03,15.85-.05,8.66,2.13,15.58,8.6,19.46,18.19,2.5,6.22,3.88,14.56,4.42,26.94.18,3.42.36,7.25.45,8.55.05,1.29.14,27.82.18,58.9l.05,56.62h47.36l-.18-76.82c-.09-70.56-.18-77.19-.89-82.11-3.26-21.86-10.84-35.9-25.8-47.5-6.83-5.33-14.46-9.02-23.25-11.19-5.49-1.4-18.88-1.76-24.72-.72h0l-.02-.04Z"/>
  <path class="cls-1" d="m2946.87,3845.93c-6.43,1.5-13.57,5.23-18.65,9.74-5,4.45-10.89,12.75-13.3,18.6-.45,1.09-.89,1.97-1.03,1.97s-.27-5.75-.27-12.79v-12.85l-20.39-.15-20.44-.1v213.95h47.31v-56.88c0-31.24.09-58.59.23-60.72,1.79-26.78,4.91-38.54,12.5-47.4,6.65-7.77,13.21-8.96,23.3-4.2l3.66,1.71.45-1.35c.27-.72,3.62-11.14,7.41-23.05,5.31-16.63,6.83-21.81,6.38-22.12-1.52-1.14-8.43-3.68-11.83-4.35-4.6-.93-11.34-.93-15.31,0h-.02Z"/>
  <path class="cls-1" d="m3411.73,3845.67c-23.16,3.06-44.54,15.64-61.37,36.06-17,20.72-25.44,45.07-25.84,74.55-.31,25.02,6.16,48.39,18.74,67.71,6.12,9.38,16.7,20.82,25.22,27.35,11.96,9.17,24.86,14.82,39.68,17.41,6.56,1.14,20.98,1.29,27.9.31,23.57-3.42,44.81-15.44,60.35-34.19,31.33-37.92,36.02-95.01,11.29-138.16-9.69-16.89-22.27-29.63-38.38-38.85-10.08-5.8-18.7-9.06-29.46-11.19-6.12-1.24-22.05-1.76-28.12-.99h0Zm26.16,52.05c16.61,4.82,30.17,20.05,34.95,39.16,1.7,6.84,2.23,11.97,2.23,21.18-.05,9.53-.89,15.8-3.3,23.36-6.3,20.05-21.29,34.35-39.28,37.51-4.91.88-12.67.99-17.18.26-16.16-2.7-29.68-13.68-37.05-30.1-4.28-9.59-6.03-18.7-6.03-31.55,0-18.91,4.64-32.84,14.95-44.81,8.52-9.89,18.97-15.59,30.71-16.68,6.3-.62,14.59.05,20,1.66h0Z"/>
  <path class="cls-1" d="m3634.23,3845.93c-13.26,3.11-24.5,12.85-31.42,27.25l-1.61,3.31v-3.63c0-2.02-.09-7.82-.14-12.95l-.09-9.32-20.39-.15-20.44-.1v213.95h47.31v-56.36c0-34.19.18-59.26.45-63.82,1.47-23.52,4.86-36.06,12.05-44.6,6.65-7.88,13.43-9.17,23.53-4.4l3.66,1.71,7.41-23.05c5.67-17.72,7.28-23.16,6.83-23.47-1.52-1.14-8.43-3.68-11.83-4.35-4.6-.93-11.34-.93-15.31,0h0v-.02Z"/>
  <path class="cls-1" d="m3765.46,3845.46c-19.06,2.8-33.56,9.89-47.13,23.16-21.24,20.67-31.96,49.16-32,85.32-.05,5.86.23,12.9.49,15.64,2.36,22.22,9.15,41.24,20.26,56.62,15.31,21.24,34.41,33.67,57.27,37.24,7.23,1.14,22.41.83,29.23-.62,14.87-3.16,27.36-10.31,37.98-21.71,1.38-1.5,2.68-2.74,2.81-2.74.71,0-.62,19.27-1.79,25.8-1.83,10.26-5.98,17.41-13.57,23.42-6.92,5.49-14.55,8.39-26.56,10.1-2.95.42-16.2.42-19.64,0-13.3-1.6-24.1-6.74-31.73-14.92l-2.77-2.95h-26.16c-14.37,0-26.16.1-26.16.26s.71,2.44,1.61,5.08c11.65,34.35,37.23,55.79,72.93,61.18,8.08,1.24,21.92,2.02,29.01,1.66,24.59-1.29,42.54-7.15,57.62-18.86,20.13-15.64,29.77-35.85,33.75-70.56.76-6.53.8-13.83.8-107.49v-100.5l-23.53-.15-23.57-.1v11.66c0,6.43-.14,11.66-.31,11.66s-1.03-.78-1.92-1.76c-4.6-5.08-14.55-13.11-20.98-16.89-6.25-3.68-14.82-6.94-22.54-8.55-3.88-.83-19.86-1.5-23.43-.99h.03Zm33.03,51.43c10.04,2.64,17.99,7.88,24.86,16.27,9.78,11.97,14.02,26.26,13.39,45.43-.62,18.96-6.43,33.15-18.17,44.5-8.34,8.08-19.11,12.28-31.82,12.43-15.76.21-28.48-5.54-38.74-17.56-8.12-9.53-13.08-22.17-14.11-36-.45-5.96,0-16.52.89-21.24,3.26-17.15,12.76-31.24,26.42-39.11,8.57-4.92,14.5-6.32,25.89-5.96,5.36.15,8.7.52,11.38,1.24h.01Z"/>
  <path class="cls-1" d="m2986.6,3850.85c0,.26,2.81,8.24,6.3,17.72,3.48,9.48,8.17,22.38,10.45,28.64,2.27,6.27,9.82,26.89,16.74,45.84,6.92,18.96,18.39,50.41,25.53,69.89l12.9,35.49-4.01,9.59c-3.88,9.38-8.66,20.88-13.88,33.47-1.43,3.42-6.69,16.21-11.78,28.39-5.04,12.18-9.19,22.28-9.19,22.38,0,.15,11.07.26,24.55.26h24.59l2.36-5.86c1.29-3.16,7.63-18.76,14.11-34.55,6.43-15.8,14.33-35.18,17.5-43,3.21-7.82,6.69-16.37,7.72-18.91,1.03-2.59,4.56-11.19,7.81-19.17,3.26-7.98,6.78-16.63,7.81-19.17,1.03-2.59,4.56-11.19,7.81-19.17,3.26-7.98,6.56-16.16,7.36-18.13,1.88-4.61,4.82-11.91,7.72-18.91,2.81-6.89,9.51-23.31,11.69-28.75.94-2.28,7.32-17.98,14.24-34.92s12.54-30.98,12.54-31.19c0-.26-10.93-.47-24.33-.47h-24.33l-1.52,3.73c-.85,2.07-3.21,7.98-5.27,13.11-13.84,34.08-29.46,72.63-34.55,85.11-3.26,8.08-7.5,18.49-9.37,23.16-1.88,4.72-3.57,8.55-3.71,8.55s-2.72-6.74-5.71-14.92-10.22-27.92-16.11-43.88c-5.84-15.96-14.33-39.06-18.83-51.28-4.51-12.28-8.34-22.59-8.61-22.95-.36-.52-5.62-.62-24.46-.62-14.15,0-24.06.21-24.06.52h-.01Z"/>
  <path class="cls-1" d="m3243.24,4009.11c-9.6,2.7-17.45,11.45-19.86,22.07-.8,3.31-.85,10.73-.18,14.56,1.43,8.08,7.5,16.94,14.24,20.72,7.95,4.51,16.91,4.56,24.95.05,2.45-1.35,4.24-2.9,6.96-6.06,5.71-6.53,7.99-12.69,7.95-21.55-.05-8.75-2.27-14.92-7.72-21.24-3.84-4.51-7.32-6.84-12.32-8.29-4.01-1.19-10.27-1.29-14.02-.26h0Z"/>
</svg>